<mxfile host="app.diagrams.net" modified="2022-09-02T01:40:50.961Z" agent="5.0 (Windows NT 10.0; Win64; x64) AppleWebKit/537.36 (KHTML, like Gecko) Chrome/103.0.0.0 Safari/537.36" etag="rEe_SURtgGDDmXgNLL09" version="20.2.5" type="github">
  <diagram id="C5RBs43oDa-KdzZeNtuy" name="Page-1">
    <mxGraphModel dx="3327" dy="3272" grid="1" gridSize="10" guides="1" tooltips="1" connect="1" arrows="1" fold="1" page="1" pageScale="1" pageWidth="827" pageHeight="1169" math="0" shadow="0">
      <root>
        <mxCell id="WIyWlLk6GJQsqaUBKTNV-0" />
        <mxCell id="WIyWlLk6GJQsqaUBKTNV-1" parent="WIyWlLk6GJQsqaUBKTNV-0" />
        <mxCell id="3sq2q5aOKvz9u4SkfBbp-9" value="project" style="swimlane;fontStyle=1;childLayout=stackLayout;horizontal=1;startSize=26;horizontalStack=0;resizeParent=1;resizeParentMax=0;resizeLast=0;collapsible=1;marginBottom=0;shadow=0;glass=0;sketch=1;fontFamily=Comic Sans MS;fontSize=16;html=1;swimlaneLine=1;rounded=1;labelBackgroundColor=none;labelBorderColor=none;" parent="WIyWlLk6GJQsqaUBKTNV-1" vertex="1">
          <mxGeometry x="580" y="605" width="250" height="320" as="geometry" />
        </mxCell>
        <mxCell id="G1SJ9XWwTOi_GsLU9m5k-24" value="主要类，angr的入口，初始化二进制程序。" style="text;align=left;verticalAlign=top;spacingLeft=4;spacingRight=4;overflow=hidden;rotatable=0;points=[[0,0.5],[1,0.5]];portConstraint=eastwest;shadow=0;glass=0;sketch=1;fontFamily=Comic Sans MS;fontSize=15;html=1;whiteSpace=wrap;strokeColor=#000000;" parent="3sq2q5aOKvz9u4SkfBbp-9" vertex="1">
          <mxGeometry y="26" width="250" height="54" as="geometry" />
        </mxCell>
        <mxCell id="3sq2q5aOKvz9u4SkfBbp-10" value="+ factory&lt;br&gt;该成员是AngrObjectFactory类，在project初始化的时候被初始化。" style="text;align=left;verticalAlign=top;spacingLeft=4;spacingRight=4;overflow=hidden;rotatable=0;points=[[0,0.5],[1,0.5]];portConstraint=eastwest;shadow=0;glass=0;sketch=1;fontFamily=Comic Sans MS;fontSize=15;html=1;whiteSpace=wrap;strokeColor=#000000;" parent="3sq2q5aOKvz9u4SkfBbp-9" vertex="1">
          <mxGeometry y="80" width="250" height="80" as="geometry" />
        </mxCell>
        <mxCell id="3sq2q5aOKvz9u4SkfBbp-11" value="+ simos &lt;br&gt;模拟器/目标操作系统类型，初始化可以手动指定也可以自动根据程序类型初始化。" style="text;align=left;verticalAlign=top;spacingLeft=4;spacingRight=4;overflow=hidden;rotatable=0;points=[[0,0.5],[1,0.5]];portConstraint=eastwest;shadow=0;glass=0;sketch=1;fontFamily=Comic Sans MS;fontSize=15;html=1;whiteSpace=wrap;strokeColor=#000000;" parent="3sq2q5aOKvz9u4SkfBbp-9" vertex="1">
          <mxGeometry y="160" width="250" height="80" as="geometry" />
        </mxCell>
        <mxCell id="3sq2q5aOKvz9u4SkfBbp-12" value="+ arch&amp;nbsp;&lt;br&gt;使用了angr自己的一个库archinfo，用于表示架构、寄存器啥的" style="text;align=left;verticalAlign=top;spacingLeft=4;spacingRight=4;overflow=hidden;rotatable=0;points=[[0,0.5],[1,0.5]];portConstraint=eastwest;shadow=0;glass=0;sketch=1;fontFamily=Comic Sans MS;fontSize=15;html=1;whiteSpace=wrap;strokeColor=#000000;rounded=1;" parent="3sq2q5aOKvz9u4SkfBbp-9" vertex="1">
          <mxGeometry y="240" width="250" height="80" as="geometry" />
        </mxCell>
        <mxCell id="w3D9RBcbC0xk_d73lik7-0" value="AngrObjectFactory" style="swimlane;fontStyle=1;childLayout=stackLayout;horizontal=1;startSize=26;horizontalStack=0;resizeParent=1;resizeParentMax=0;resizeLast=0;collapsible=1;marginBottom=0;shadow=0;glass=0;sketch=1;fontFamily=Comic Sans MS;fontSize=16;html=1;swimlaneLine=1;rounded=1;labelBackgroundColor=none;labelBorderColor=none;" parent="WIyWlLk6GJQsqaUBKTNV-1" vertex="1">
          <mxGeometry x="40" y="215" width="300" height="320" as="geometry" />
        </mxCell>
        <mxCell id="G1SJ9XWwTOi_GsLU9m5k-25" value="主要负责初始化各种符号执行相关的类/对象，比如程序的初始状态，初始化模拟执行管理器等。" style="text;align=left;verticalAlign=top;spacingLeft=4;spacingRight=4;overflow=hidden;rotatable=0;points=[[0,0.5],[1,0.5]];portConstraint=eastwest;shadow=0;glass=0;sketch=1;fontFamily=Comic Sans MS;fontSize=15;html=1;whiteSpace=wrap;strokeColor=#000000;" parent="w3D9RBcbC0xk_d73lik7-0" vertex="1">
          <mxGeometry y="26" width="300" height="84" as="geometry" />
        </mxCell>
        <mxCell id="w3D9RBcbC0xk_d73lik7-1" value="+ project 指向project" style="text;align=left;verticalAlign=middle;spacingLeft=4;spacingRight=4;overflow=hidden;rotatable=0;points=[[0,0.5],[1,0.5]];portConstraint=eastwest;shadow=0;glass=0;sketch=1;fontFamily=Comic Sans MS;fontSize=15;html=1;strokeColor=#000000;" parent="w3D9RBcbC0xk_d73lik7-0" vertex="1">
          <mxGeometry y="110" width="300" height="26" as="geometry" />
        </mxCell>
        <mxCell id="w3D9RBcbC0xk_d73lik7-2" value="+ field: type" style="text;align=left;verticalAlign=middle;spacingLeft=4;spacingRight=4;overflow=hidden;rotatable=0;points=[[0,0.5],[1,0.5]];portConstraint=eastwest;shadow=0;glass=0;sketch=1;fontFamily=Comic Sans MS;fontSize=15;html=1;strokeColor=#000000;" parent="w3D9RBcbC0xk_d73lik7-0" vertex="1">
          <mxGeometry y="136" width="300" height="26" as="geometry" />
        </mxCell>
        <mxCell id="w3D9RBcbC0xk_d73lik7-7" value="" style="line;strokeWidth=1;align=left;verticalAlign=middle;spacingTop=-1;spacingLeft=3;spacingRight=3;rotatable=0;labelPosition=right;points=[];portConstraint=eastwest;rounded=1;shadow=0;glass=0;labelBackgroundColor=none;labelBorderColor=none;sketch=1;fontFamily=Comic Sans MS;fontSize=15;startSize=26;html=1;" parent="w3D9RBcbC0xk_d73lik7-0" vertex="1">
          <mxGeometry y="162" width="300" height="8" as="geometry" />
        </mxCell>
        <mxCell id="w3D9RBcbC0xk_d73lik7-3" value="&lt;div style=&quot;&quot;&gt;&lt;span style=&quot;background-color: initial;&quot;&gt;+ entry_state(): SimState&lt;/span&gt;&lt;/div&gt;&lt;div style=&quot;&quot;&gt;根据程序入口获得一个初始化状态，返回状态类SimState。&lt;/div&gt;&lt;div style=&quot;&quot;&gt;这里直接调用project.simos.state_entry()&lt;/div&gt;" style="text;align=left;verticalAlign=top;spacingLeft=4;spacingRight=4;overflow=hidden;rotatable=0;points=[[0,0.5],[1,0.5]];portConstraint=eastwest;shadow=0;glass=0;sketch=1;fontFamily=Comic Sans MS;fontSize=15;html=1;whiteSpace=wrap;strokeColor=#b85450;fillColor=#f8cecc;" parent="w3D9RBcbC0xk_d73lik7-0" vertex="1">
          <mxGeometry y="170" width="300" height="90" as="geometry" />
        </mxCell>
        <mxCell id="w3D9RBcbC0xk_d73lik7-25" value="+ simgr()&lt;br&gt;simulation_manager() 的别名&lt;br&gt;初始化并返回一个SimulationManager对象" style="text;align=left;verticalAlign=middle;spacingLeft=4;spacingRight=4;overflow=hidden;rotatable=0;points=[[0,0.5],[1,0.5]];portConstraint=eastwest;shadow=0;glass=0;sketch=1;fontFamily=Comic Sans MS;fontSize=15;html=1;strokeColor=#000000;rounded=1;" parent="w3D9RBcbC0xk_d73lik7-0" vertex="1">
          <mxGeometry y="260" width="300" height="60" as="geometry" />
        </mxCell>
        <mxCell id="w3D9RBcbC0xk_d73lik7-21" value="SimState(PluginHub)" style="swimlane;fontStyle=1;childLayout=stackLayout;horizontal=1;startSize=26;horizontalStack=0;resizeParent=1;resizeParentMax=0;resizeLast=0;collapsible=1;marginBottom=0;shadow=0;glass=0;sketch=1;fontFamily=Comic Sans MS;fontSize=16;html=1;swimlaneLine=1;rounded=1;labelBackgroundColor=none;labelBorderColor=none;" parent="WIyWlLk6GJQsqaUBKTNV-1" vertex="1">
          <mxGeometry x="560" y="100" width="280" height="390" as="geometry" />
        </mxCell>
        <mxCell id="G1SJ9XWwTOi_GsLU9m5k-68" value="主要的类之一，程序状态，包括寄存器、内存等，在SimOs中被初始化" style="text;align=left;verticalAlign=top;spacingLeft=4;spacingRight=4;overflow=hidden;rotatable=0;points=[[0,0.5],[1,0.5]];portConstraint=eastwest;shadow=0;glass=0;sketch=1;fontFamily=Comic Sans MS;fontSize=15;html=1;whiteSpace=wrap;strokeColor=#000000;" parent="w3D9RBcbC0xk_d73lik7-21" vertex="1">
          <mxGeometry y="26" width="280" height="44" as="geometry" />
        </mxCell>
        <mxCell id="w3D9RBcbC0xk_d73lik7-22" value="+ project 指向project" style="text;align=left;verticalAlign=top;spacingLeft=4;spacingRight=4;overflow=hidden;rotatable=0;points=[[0,0.5],[1,0.5]];portConstraint=eastwest;shadow=0;glass=0;sketch=1;fontFamily=Comic Sans MS;fontSize=15;html=1;strokeColor=#000000;" parent="w3D9RBcbC0xk_d73lik7-21" vertex="1">
          <mxGeometry y="70" width="280" height="26" as="geometry" />
        </mxCell>
        <mxCell id="w3D9RBcbC0xk_d73lik7-23" value="- _arch = arch&lt;br&gt;archinfo 根据project.arch初始化" style="text;align=left;verticalAlign=top;spacingLeft=4;spacingRight=4;overflow=hidden;rotatable=0;points=[[0,0.5],[1,0.5]];portConstraint=eastwest;shadow=0;glass=0;sketch=1;fontFamily=Comic Sans MS;fontSize=15;html=1;strokeColor=#000000;" parent="w3D9RBcbC0xk_d73lik7-21" vertex="1">
          <mxGeometry y="96" width="280" height="48" as="geometry" />
        </mxCell>
        <mxCell id="G1SJ9XWwTOi_GsLU9m5k-67" value="+ memary&lt;br&gt;内存，直接访问注册的内存插件" style="text;align=left;verticalAlign=top;spacingLeft=4;spacingRight=4;overflow=hidden;rotatable=0;points=[[0,0.5],[1,0.5]];portConstraint=eastwest;shadow=0;glass=0;sketch=1;fontFamily=Comic Sans MS;fontSize=15;html=1;strokeColor=#000000;" parent="w3D9RBcbC0xk_d73lik7-21" vertex="1">
          <mxGeometry y="144" width="280" height="48" as="geometry" />
        </mxCell>
        <mxCell id="-6HKtMP87Wfs7apmkZVI-0" value="" style="line;strokeWidth=1;align=left;verticalAlign=middle;spacingTop=-1;spacingLeft=3;spacingRight=3;rotatable=0;labelPosition=right;points=[];portConstraint=eastwest;rounded=1;shadow=0;glass=0;labelBackgroundColor=none;labelBorderColor=none;sketch=1;fontFamily=Comic Sans MS;fontSize=15;startSize=26;html=1;" parent="w3D9RBcbC0xk_d73lik7-21" vertex="1">
          <mxGeometry y="192" width="280" height="8" as="geometry" />
        </mxCell>
        <mxCell id="w3D9RBcbC0xk_d73lik7-24" value="- __init__&lt;br&gt;初始化架构、内存、寄存器&lt;br&gt;&lt;br&gt;架构使用archinfo&lt;br&gt;&lt;br&gt;内存和寄存器从插件池获取正确的插件，然后初始化" style="text;align=left;verticalAlign=top;spacingLeft=4;spacingRight=4;overflow=hidden;rotatable=0;points=[[0,0.5],[1,0.5]];portConstraint=eastwest;shadow=0;glass=0;sketch=1;fontFamily=Comic Sans MS;fontSize=15;html=1;strokeColor=#000000;whiteSpace=wrap;rounded=0;" parent="w3D9RBcbC0xk_d73lik7-21" vertex="1">
          <mxGeometry y="200" width="280" height="190" as="geometry" />
        </mxCell>
        <mxCell id="G1SJ9XWwTOi_GsLU9m5k-16" value="Explorer" style="swimlane;fontStyle=1;childLayout=stackLayout;horizontal=1;startSize=26;horizontalStack=0;resizeParent=1;resizeParentMax=0;resizeLast=0;collapsible=1;marginBottom=0;shadow=0;glass=0;sketch=1;fontFamily=Comic Sans MS;fontSize=16;html=1;swimlaneLine=1;rounded=1;labelBackgroundColor=none;labelBorderColor=none;" parent="WIyWlLk6GJQsqaUBKTNV-1" vertex="1">
          <mxGeometry x="-1120" y="330" width="240" height="106" as="geometry" />
        </mxCell>
        <mxCell id="G1SJ9XWwTOi_GsLU9m5k-18" value="各种不同的探索策略，可以自定义，比如深度优先等" style="text;align=left;verticalAlign=top;spacingLeft=4;spacingRight=4;overflow=hidden;rotatable=0;points=[[0,0.5],[1,0.5]];portConstraint=eastwest;shadow=0;glass=0;sketch=1;fontFamily=Comic Sans MS;fontSize=15;html=1;strokeColor=#000000;whiteSpace=wrap;" parent="G1SJ9XWwTOi_GsLU9m5k-16" vertex="1">
          <mxGeometry y="26" width="240" height="54" as="geometry" />
        </mxCell>
        <mxCell id="G1SJ9XWwTOi_GsLU9m5k-19" value="+ field: type" style="text;align=left;verticalAlign=top;spacingLeft=4;spacingRight=4;overflow=hidden;rotatable=0;points=[[0,0.5],[1,0.5]];portConstraint=eastwest;shadow=0;glass=0;sketch=1;fontFamily=Comic Sans MS;fontSize=15;html=1;strokeColor=#000000;" parent="G1SJ9XWwTOi_GsLU9m5k-16" vertex="1">
          <mxGeometry y="80" width="240" height="26" as="geometry" />
        </mxCell>
        <mxCell id="G1SJ9XWwTOi_GsLU9m5k-38" value="SimLinux(SimUserland)" style="swimlane;fontStyle=1;childLayout=stackLayout;horizontal=1;startSize=26;horizontalStack=0;resizeParent=1;resizeParentMax=0;resizeLast=0;collapsible=1;marginBottom=0;shadow=0;glass=0;sketch=1;fontFamily=Comic Sans MS;fontSize=16;html=1;swimlaneLine=1;rounded=1;labelBackgroundColor=none;labelBorderColor=none;" parent="WIyWlLk6GJQsqaUBKTNV-1" vertex="1">
          <mxGeometry x="30" y="680" width="300" height="260" as="geometry" />
        </mxCell>
        <mxCell id="G1SJ9XWwTOi_GsLU9m5k-39" value="主要负责linux架构的程序的初始状态初始化" style="text;align=left;verticalAlign=top;spacingLeft=4;spacingRight=4;overflow=hidden;rotatable=0;points=[[0,0.5],[1,0.5]];portConstraint=eastwest;shadow=0;glass=0;sketch=1;fontFamily=Comic Sans MS;fontSize=15;html=1;strokeColor=#000000;" parent="G1SJ9XWwTOi_GsLU9m5k-38" vertex="1">
          <mxGeometry y="26" width="300" height="32" as="geometry" />
        </mxCell>
        <mxCell id="G1SJ9XWwTOi_GsLU9m5k-42" value="" style="line;strokeWidth=1;align=left;verticalAlign=middle;spacingTop=-1;spacingLeft=3;spacingRight=3;rotatable=0;labelPosition=right;points=[];portConstraint=eastwest;rounded=1;shadow=0;glass=0;labelBackgroundColor=none;labelBorderColor=none;sketch=1;fontFamily=Comic Sans MS;fontSize=15;startSize=26;html=1;" parent="G1SJ9XWwTOi_GsLU9m5k-38" vertex="1">
          <mxGeometry y="58" width="300" height="8" as="geometry" />
        </mxCell>
        <mxCell id="G1SJ9XWwTOi_GsLU9m5k-40" value="+ state_entry(): SimState&lt;br&gt;先调用父类SimOS的state_entry函数。&lt;br&gt;然后对argc、argv、envp进行初始化(成向量BVV)。" style="text;align=left;verticalAlign=top;spacingLeft=4;spacingRight=4;overflow=hidden;rotatable=0;points=[[0,0.5],[1,0.5]];portConstraint=eastwest;shadow=0;glass=0;sketch=1;fontFamily=Comic Sans MS;fontSize=15;html=1;whiteSpace=wrap;strokeColor=#000000;" parent="G1SJ9XWwTOi_GsLU9m5k-38" vertex="1">
          <mxGeometry y="66" width="300" height="94" as="geometry" />
        </mxCell>
        <mxCell id="G1SJ9XWwTOi_GsLU9m5k-41" value="+ state_blank()&lt;br&gt;自己手动指定一个状态" style="text;align=left;verticalAlign=top;spacingLeft=4;spacingRight=4;overflow=hidden;rotatable=0;points=[[0,0.5],[1,0.5]];portConstraint=eastwest;shadow=0;glass=0;sketch=1;fontFamily=Comic Sans MS;fontSize=15;html=1;whiteSpace=wrap;strokeColor=#000000;" parent="G1SJ9XWwTOi_GsLU9m5k-38" vertex="1">
          <mxGeometry y="160" width="300" height="50" as="geometry" />
        </mxCell>
        <mxCell id="-6HKtMP87Wfs7apmkZVI-81" value="+ state_full_init()&lt;br&gt;从头开始初始化程序获得初始状态" style="text;align=left;verticalAlign=top;spacingLeft=4;spacingRight=4;overflow=hidden;rotatable=0;points=[[0,0.5],[1,0.5]];portConstraint=eastwest;shadow=0;glass=0;sketch=1;fontFamily=Comic Sans MS;fontSize=15;html=1;whiteSpace=wrap;strokeColor=#000000;rounded=1;" parent="G1SJ9XWwTOi_GsLU9m5k-38" vertex="1">
          <mxGeometry y="210" width="300" height="50" as="geometry" />
        </mxCell>
        <mxCell id="G1SJ9XWwTOi_GsLU9m5k-43" style="rounded=1;orthogonalLoop=1;jettySize=auto;html=1;entryX=1;entryY=0.5;entryDx=0;entryDy=0;sketch=1;exitX=0;exitY=0.5;exitDx=0;exitDy=0;edgeStyle=orthogonalEdgeStyle;" parent="WIyWlLk6GJQsqaUBKTNV-1" source="3sq2q5aOKvz9u4SkfBbp-11" target="G1SJ9XWwTOi_GsLU9m5k-39" edge="1">
          <mxGeometry relative="1" as="geometry">
            <Array as="points">
              <mxPoint x="400" y="805" />
              <mxPoint x="400" y="722" />
            </Array>
          </mxGeometry>
        </mxCell>
        <mxCell id="G1SJ9XWwTOi_GsLU9m5k-45" value="SimUserland(SimOS)" style="swimlane;fontStyle=1;childLayout=stackLayout;horizontal=1;startSize=26;horizontalStack=0;resizeParent=1;resizeParentMax=0;resizeLast=0;collapsible=1;marginBottom=0;shadow=0;glass=0;sketch=1;fontFamily=Comic Sans MS;fontSize=16;html=1;swimlaneLine=1;rounded=1;labelBackgroundColor=none;labelBorderColor=none;" parent="WIyWlLk6GJQsqaUBKTNV-1" vertex="1">
          <mxGeometry x="-270" y="690" width="200" height="78" as="geometry">
            <mxRectangle x="-440" y="752" width="200" height="30" as="alternateBounds" />
          </mxGeometry>
        </mxCell>
        <mxCell id="G1SJ9XWwTOi_GsLU9m5k-47" value="+ field: type" style="text;align=left;verticalAlign=top;spacingLeft=4;spacingRight=4;overflow=hidden;rotatable=0;points=[[0,0.5],[1,0.5]];portConstraint=eastwest;shadow=0;glass=0;sketch=1;fontFamily=Comic Sans MS;fontSize=15;html=1;strokeColor=#000000;" parent="G1SJ9XWwTOi_GsLU9m5k-45" vertex="1">
          <mxGeometry y="26" width="200" height="26" as="geometry" />
        </mxCell>
        <mxCell id="G1SJ9XWwTOi_GsLU9m5k-48" value="+ field: type" style="text;align=left;verticalAlign=top;spacingLeft=4;spacingRight=4;overflow=hidden;rotatable=0;points=[[0,0.5],[1,0.5]];portConstraint=eastwest;shadow=0;glass=0;sketch=1;fontFamily=Comic Sans MS;fontSize=15;html=1;strokeColor=#000000;rounded=1;" parent="G1SJ9XWwTOi_GsLU9m5k-45" vertex="1">
          <mxGeometry y="52" width="200" height="26" as="geometry" />
        </mxCell>
        <mxCell id="G1SJ9XWwTOi_GsLU9m5k-49" value="SimOs" style="swimlane;fontStyle=1;childLayout=stackLayout;horizontal=1;startSize=26;horizontalStack=0;resizeParent=1;resizeParentMax=0;resizeLast=0;collapsible=1;marginBottom=0;shadow=0;glass=0;sketch=1;fontFamily=Comic Sans MS;fontSize=16;html=1;swimlaneLine=1;rounded=1;labelBackgroundColor=none;labelBorderColor=none;" parent="WIyWlLk6GJQsqaUBKTNV-1" vertex="1">
          <mxGeometry x="-790" y="705" width="370" height="360" as="geometry">
            <mxRectangle x="-440" y="752" width="200" height="30" as="alternateBounds" />
          </mxGeometry>
        </mxCell>
        <mxCell id="G1SJ9XWwTOi_GsLU9m5k-50" value="各种系统初始化类的父类" style="text;align=left;verticalAlign=top;spacingLeft=4;spacingRight=4;overflow=hidden;rotatable=0;points=[[0,0.5],[1,0.5]];portConstraint=eastwest;shadow=0;glass=0;sketch=1;fontFamily=Comic Sans MS;fontSize=15;html=1;strokeColor=#000000;" parent="G1SJ9XWwTOi_GsLU9m5k-49" vertex="1">
          <mxGeometry y="26" width="370" height="26" as="geometry" />
        </mxCell>
        <mxCell id="G1SJ9XWwTOi_GsLU9m5k-51" value="+ field: type" style="text;align=left;verticalAlign=top;spacingLeft=4;spacingRight=4;overflow=hidden;rotatable=0;points=[[0,0.5],[1,0.5]];portConstraint=eastwest;shadow=0;glass=0;sketch=1;fontFamily=Comic Sans MS;fontSize=15;html=1;strokeColor=#000000;" parent="G1SJ9XWwTOi_GsLU9m5k-49" vertex="1">
          <mxGeometry y="52" width="370" height="26" as="geometry" />
        </mxCell>
        <mxCell id="G1SJ9XWwTOi_GsLU9m5k-58" value="" style="line;strokeWidth=1;align=left;verticalAlign=middle;spacingTop=-1;spacingLeft=3;spacingRight=3;rotatable=0;labelPosition=right;points=[];portConstraint=eastwest;rounded=1;shadow=0;glass=0;labelBackgroundColor=none;labelBorderColor=none;sketch=1;fontFamily=Comic Sans MS;fontSize=15;startSize=26;html=1;" parent="G1SJ9XWwTOi_GsLU9m5k-49" vertex="1">
          <mxGeometry y="78" width="370" height="8" as="geometry" />
        </mxCell>
        <mxCell id="-6HKtMP87Wfs7apmkZVI-69" style="edgeStyle=orthogonalEdgeStyle;rounded=1;sketch=1;orthogonalLoop=1;jettySize=auto;html=1;entryX=0;entryY=0.5;entryDx=0;entryDy=0;strokeColor=#000000;fontColor=#FF0800;dashed=1;" parent="G1SJ9XWwTOi_GsLU9m5k-49" source="G1SJ9XWwTOi_GsLU9m5k-57" target="G1SJ9XWwTOi_GsLU9m5k-59" edge="1">
          <mxGeometry relative="1" as="geometry">
            <Array as="points">
              <mxPoint x="-30" y="113" />
              <mxPoint x="-30" y="250" />
            </Array>
          </mxGeometry>
        </mxCell>
        <mxCell id="G1SJ9XWwTOi_GsLU9m5k-57" value="+ state_entry(): SimState&lt;br&gt;直接调用state_blank()" style="text;align=left;verticalAlign=top;spacingLeft=4;spacingRight=4;overflow=hidden;rotatable=0;points=[[0,0.5],[1,0.5]];portConstraint=eastwest;shadow=0;glass=0;sketch=1;fontFamily=Comic Sans MS;fontSize=15;html=1;whiteSpace=wrap;strokeColor=#000000;" parent="G1SJ9XWwTOi_GsLU9m5k-49" vertex="1">
          <mxGeometry y="86" width="370" height="54" as="geometry" />
        </mxCell>
        <mxCell id="G1SJ9XWwTOi_GsLU9m5k-59" value="+ state_blank(): SimState&lt;br&gt;state_entry、state_init、state_call都调用了这个函数，用于初始化一个SimState状态。&lt;br&gt;可以手工指定栈大小、位置、初始化的位置等&lt;br&gt;&lt;br&gt;根据用户是否手动指定，初始化一下函数内存段信息，和stdin(SimFileStream类)，后续用来注册&#39;posix&#39;类(SimState.register_plugin)。&lt;br&gt;&lt;br&gt;如果指定了initial_prefix，符号化寄存器。然后初始化什么栈、进程之类的。" style="text;align=left;verticalAlign=top;spacingLeft=4;spacingRight=4;overflow=hidden;rotatable=0;points=[[0,0.5],[1,0.5]];portConstraint=eastwest;shadow=0;glass=0;sketch=1;fontFamily=Comic Sans MS;fontSize=15;html=1;whiteSpace=wrap;strokeColor=#000000;" parent="G1SJ9XWwTOi_GsLU9m5k-49" vertex="1">
          <mxGeometry y="140" width="370" height="220" as="geometry" />
        </mxCell>
        <mxCell id="G1SJ9XWwTOi_GsLU9m5k-56" value="" style="endArrow=block;dashed=1;endFill=0;endSize=12;html=1;rounded=1;sketch=1;fontFamily=Comic Sans MS;exitX=1.005;exitY=0.128;exitDx=0;exitDy=0;exitPerimeter=0;entryX=0;entryY=0.05;entryDx=0;entryDy=0;entryPerimeter=0;" parent="WIyWlLk6GJQsqaUBKTNV-1" source="G1SJ9XWwTOi_GsLU9m5k-45" target="G1SJ9XWwTOi_GsLU9m5k-38" edge="1">
          <mxGeometry width="160" relative="1" as="geometry">
            <mxPoint x="-190" y="930.932" as="sourcePoint" />
            <mxPoint x="10" y="670" as="targetPoint" />
          </mxGeometry>
        </mxCell>
        <mxCell id="G1SJ9XWwTOi_GsLU9m5k-64" style="sketch=1;orthogonalLoop=1;jettySize=auto;html=1;fontFamily=Comic Sans MS;dashed=1;rounded=1;entryX=1;entryY=0.5;entryDx=0;entryDy=0;exitX=0;exitY=0.5;exitDx=0;exitDy=0;" parent="WIyWlLk6GJQsqaUBKTNV-1" source="G1SJ9XWwTOi_GsLU9m5k-40" target="G1SJ9XWwTOi_GsLU9m5k-57" edge="1">
          <mxGeometry relative="1" as="geometry">
            <mxPoint x="30" y="803" as="sourcePoint" />
          </mxGeometry>
        </mxCell>
        <mxCell id="Z9_WpyUp3ctRPymMz_iH-81" value="&lt;font color=&quot;#ff3333&quot; style=&quot;font-size: 18px;&quot;&gt;call&lt;/font&gt;" style="edgeLabel;html=1;align=center;verticalAlign=middle;resizable=0;points=[];fontSize=15;fontFamily=Comic Sans MS;fontStyle=1" parent="G1SJ9XWwTOi_GsLU9m5k-64" vertex="1" connectable="0">
          <mxGeometry x="-0.5067" y="2" relative="1" as="geometry">
            <mxPoint x="-79" as="offset" />
          </mxGeometry>
        </mxCell>
        <mxCell id="G1SJ9XWwTOi_GsLU9m5k-65" style="edgeStyle=orthogonalEdgeStyle;sketch=1;orthogonalLoop=1;jettySize=auto;html=1;entryX=0;entryY=0.125;entryDx=0;entryDy=0;dashed=1;fontFamily=Comic Sans MS;entryPerimeter=0;" parent="WIyWlLk6GJQsqaUBKTNV-1" source="w3D9RBcbC0xk_d73lik7-3" target="G1SJ9XWwTOi_GsLU9m5k-40" edge="1">
          <mxGeometry relative="1" as="geometry">
            <Array as="points">
              <mxPoint x="-20" y="430" />
              <mxPoint x="-20" y="758" />
            </Array>
          </mxGeometry>
        </mxCell>
        <mxCell id="G1SJ9XWwTOi_GsLU9m5k-66" value="&lt;font color=&quot;#ff3333&quot; style=&quot;font-size: 20px&quot;&gt;return&lt;/font&gt;" style="html=1;verticalAlign=bottom;endArrow=open;dashed=1;endSize=8;rounded=1;sketch=1;fontFamily=Comic Sans MS;edgeStyle=orthogonalEdgeStyle;exitX=1.003;exitY=0.088;exitDx=0;exitDy=0;exitPerimeter=0;entryX=-0.009;entryY=0.04;entryDx=0;entryDy=0;entryPerimeter=0;fontStyle=1" parent="WIyWlLk6GJQsqaUBKTNV-1" source="w3D9RBcbC0xk_d73lik7-3" target="w3D9RBcbC0xk_d73lik7-21" edge="1">
          <mxGeometry relative="1" as="geometry">
            <mxPoint x="510" y="490" as="sourcePoint" />
            <mxPoint x="640" y="170" as="targetPoint" />
            <Array as="points">
              <mxPoint x="510" y="399" />
              <mxPoint x="510" y="115" />
            </Array>
          </mxGeometry>
        </mxCell>
        <mxCell id="-6HKtMP87Wfs7apmkZVI-1" value="PluginHub" style="swimlane;fontStyle=1;childLayout=stackLayout;horizontal=1;startSize=26;horizontalStack=0;resizeParent=1;resizeParentMax=0;resizeLast=0;collapsible=1;marginBottom=0;shadow=0;glass=0;sketch=1;fontFamily=Comic Sans MS;fontSize=16;html=1;swimlaneLine=1;rounded=1;labelBackgroundColor=none;labelBorderColor=none;" parent="WIyWlLk6GJQsqaUBKTNV-1" vertex="1">
          <mxGeometry x="500" y="-610" width="430" height="552" as="geometry">
            <mxRectangle x="-440" y="752" width="200" height="30" as="alternateBounds" />
          </mxGeometry>
        </mxCell>
        <mxCell id="-6HKtMP87Wfs7apmkZVI-4" value="插件hub，用来集成各种用于SimState的插件的类，集成的插件不代表使用，可以在这里选择插件使用，从这个类中后去插件之后调用插件的类初始化" style="text;align=left;verticalAlign=top;spacingLeft=4;spacingRight=4;overflow=hidden;rotatable=0;points=[[0,0.5],[1,0.5]];portConstraint=eastwest;shadow=0;glass=0;sketch=1;fontFamily=Comic Sans MS;fontSize=15;html=1;strokeColor=#000000;whiteSpace=wrap;" parent="-6HKtMP87Wfs7apmkZVI-1" vertex="1">
          <mxGeometry y="26" width="430" height="64" as="geometry" />
        </mxCell>
        <mxCell id="-6HKtMP87Wfs7apmkZVI-2" value="- _presets {name, PluginPreset}&lt;br&gt;表示插件池表，里面存放的都是各种插件的类，用户根据名称取出对应插件类然后手动初始化之后再调用&lt;span style=&quot;&quot;&gt;register_plugin&lt;/span&gt;注册&lt;br&gt;会在初始化的时候设置好" style="text;align=left;verticalAlign=top;spacingLeft=4;spacingRight=4;overflow=hidden;rotatable=0;points=[[0,0.5],[1,0.5]];portConstraint=eastwest;shadow=0;glass=0;sketch=1;fontFamily=Comic Sans MS;fontSize=15;html=1;strokeColor=#000000;whiteSpace=wrap;" parent="-6HKtMP87Wfs7apmkZVI-1" vertex="1">
          <mxGeometry y="90" width="430" height="80" as="geometry" />
        </mxCell>
        <mxCell id="-6HKtMP87Wfs7apmkZVI-5" value="+ plugin_preset&amp;nbsp;&lt;span style=&quot;&quot;&gt;&amp;nbsp;{name, PluginPreset}&lt;/span&gt;&amp;nbsp;&lt;br&gt;别名 _active_preset&lt;br&gt;表示启用的插件池" style="text;align=left;verticalAlign=top;spacingLeft=4;spacingRight=4;overflow=hidden;rotatable=0;points=[[0,0.5],[1,0.5]];portConstraint=eastwest;shadow=0;glass=0;sketch=1;fontFamily=Comic Sans MS;fontSize=15;html=1;strokeColor=#000000;" parent="-6HKtMP87Wfs7apmkZVI-1" vertex="1">
          <mxGeometry y="170" width="430" height="70" as="geometry" />
        </mxCell>
        <mxCell id="OSWh80jPnmQAN3sRVBe3-0" value="+ active_plugins-&amp;gt;{name, SimStatePlugin}&lt;br&gt;表示正在使用的插件" style="text;align=left;verticalAlign=top;spacingLeft=4;spacingRight=4;overflow=hidden;rotatable=0;points=[[0,0.5],[1,0.5]];portConstraint=eastwest;shadow=0;glass=0;sketch=1;fontFamily=Comic Sans MS;fontSize=15;html=1;strokeColor=#000000;" parent="-6HKtMP87Wfs7apmkZVI-1" vertex="1">
          <mxGeometry y="240" width="430" height="50" as="geometry" />
        </mxCell>
        <mxCell id="-6HKtMP87Wfs7apmkZVI-10" value="" style="line;strokeWidth=1;align=left;verticalAlign=middle;spacingTop=-1;spacingLeft=3;spacingRight=3;rotatable=0;labelPosition=right;points=[];portConstraint=eastwest;rounded=1;shadow=0;glass=0;labelBackgroundColor=none;labelBorderColor=none;sketch=1;fontFamily=Comic Sans MS;fontSize=15;startSize=26;html=1;" parent="-6HKtMP87Wfs7apmkZVI-1" vertex="1">
          <mxGeometry y="290" width="430" height="8" as="geometry" />
        </mxCell>
        <mxCell id="-6HKtMP87Wfs7apmkZVI-11" value="+ register_default&lt;br&gt;类方法&lt;br&gt;在默认插件池中注册一个指定名称的插件&lt;br&gt;很多插件在初始化阶段就会调用该类方法将自己添加到插件池之中" style="text;align=left;verticalAlign=top;spacingLeft=4;spacingRight=4;overflow=hidden;rotatable=0;points=[[0,0.5],[1,0.5]];portConstraint=eastwest;shadow=0;glass=0;sketch=1;fontFamily=Comic Sans MS;fontSize=15;html=1;strokeColor=#000000;whiteSpace=wrap;" parent="-6HKtMP87Wfs7apmkZVI-1" vertex="1">
          <mxGeometry y="298" width="430" height="82" as="geometry" />
        </mxCell>
        <mxCell id="-6HKtMP87Wfs7apmkZVI-3" value="+ register_preset&lt;br&gt;类方法&lt;br&gt;添加一个指定名称的插件池" style="text;align=left;verticalAlign=top;spacingLeft=4;spacingRight=4;overflow=hidden;rotatable=0;points=[[0,0.5],[1,0.5]];portConstraint=eastwest;shadow=0;glass=0;sketch=1;fontFamily=Comic Sans MS;fontSize=15;html=1;strokeColor=#000000;" parent="-6HKtMP87Wfs7apmkZVI-1" vertex="1">
          <mxGeometry y="380" width="430" height="66" as="geometry" />
        </mxCell>
        <mxCell id="-6HKtMP87Wfs7apmkZVI-17" value="+ use_plugin_preset&lt;br&gt;将指定名称的插件池作为激活插件池" style="text;align=left;verticalAlign=top;spacingLeft=4;spacingRight=4;overflow=hidden;rotatable=0;points=[[0,0.5],[1,0.5]];portConstraint=eastwest;shadow=0;glass=0;sketch=1;fontFamily=Comic Sans MS;fontSize=15;html=1;strokeColor=#000000;rounded=0;" parent="-6HKtMP87Wfs7apmkZVI-1" vertex="1">
          <mxGeometry y="446" width="430" height="44" as="geometry" />
        </mxCell>
        <mxCell id="OSWh80jPnmQAN3sRVBe3-1" value="+ register_plugin&lt;br&gt;将指定插件对象激活成为指定名称的插件&lt;br&gt;将插件添加到_active_plugins中" style="text;align=left;verticalAlign=top;spacingLeft=4;spacingRight=4;overflow=hidden;rotatable=0;points=[[0,0.5],[1,0.5]];portConstraint=eastwest;shadow=0;glass=0;sketch=1;fontFamily=Comic Sans MS;fontSize=15;html=1;strokeColor=#000000;rounded=1;" parent="-6HKtMP87Wfs7apmkZVI-1" vertex="1">
          <mxGeometry y="490" width="430" height="62" as="geometry" />
        </mxCell>
        <mxCell id="-6HKtMP87Wfs7apmkZVI-6" value="PluginPreset" style="swimlane;fontStyle=1;childLayout=stackLayout;horizontal=1;startSize=26;horizontalStack=0;resizeParent=1;resizeParentMax=0;resizeLast=0;collapsible=1;marginBottom=0;shadow=0;glass=0;sketch=1;fontFamily=Comic Sans MS;fontSize=16;html=1;swimlaneLine=1;rounded=1;labelBackgroundColor=none;labelBorderColor=none;" parent="WIyWlLk6GJQsqaUBKTNV-1" vertex="1">
          <mxGeometry x="20" y="-190" width="310" height="232" as="geometry">
            <mxRectangle x="-440" y="752" width="200" height="30" as="alternateBounds" />
          </mxGeometry>
        </mxCell>
        <mxCell id="-6HKtMP87Wfs7apmkZVI-7" value="插件池类，里面可以有多个插件，主要提供一些增删改查之类的方法" style="text;align=left;verticalAlign=top;spacingLeft=4;spacingRight=4;overflow=hidden;rotatable=0;points=[[0,0.5],[1,0.5]];portConstraint=eastwest;shadow=0;glass=0;sketch=1;fontFamily=Comic Sans MS;fontSize=15;html=1;strokeColor=#000000;whiteSpace=wrap;" parent="-6HKtMP87Wfs7apmkZVI-6" vertex="1">
          <mxGeometry y="26" width="310" height="64" as="geometry" />
        </mxCell>
        <mxCell id="-6HKtMP87Wfs7apmkZVI-18" value="" style="line;strokeWidth=1;align=left;verticalAlign=middle;spacingTop=-1;spacingLeft=3;spacingRight=3;rotatable=0;labelPosition=right;points=[];portConstraint=eastwest;rounded=1;shadow=0;glass=0;labelBackgroundColor=none;labelBorderColor=none;sketch=1;fontFamily=Comic Sans MS;fontSize=15;startSize=26;html=1;" parent="-6HKtMP87Wfs7apmkZVI-6" vertex="1">
          <mxGeometry y="90" width="310" height="8" as="geometry" />
        </mxCell>
        <mxCell id="-6HKtMP87Wfs7apmkZVI-8" value="+ add_default_plugin&lt;br&gt;往池子中添加一个指定名字的插件类" style="text;align=left;verticalAlign=top;spacingLeft=4;spacingRight=4;overflow=hidden;rotatable=0;points=[[0,0.5],[1,0.5]];portConstraint=eastwest;shadow=0;glass=0;sketch=1;fontFamily=Comic Sans MS;fontSize=15;html=1;strokeColor=#000000;whiteSpace=wrap;" parent="-6HKtMP87Wfs7apmkZVI-6" vertex="1">
          <mxGeometry y="98" width="310" height="72" as="geometry" />
        </mxCell>
        <mxCell id="-6HKtMP87Wfs7apmkZVI-35" value="+ request_plugin&lt;br&gt;根据名字获取对应的插件" style="text;align=left;verticalAlign=top;spacingLeft=4;spacingRight=4;overflow=hidden;rotatable=0;points=[[0,0.5],[1,0.5]];portConstraint=eastwest;shadow=0;glass=0;sketch=1;fontFamily=Comic Sans MS;fontSize=15;html=1;strokeColor=#000000;rounded=1;" parent="-6HKtMP87Wfs7apmkZVI-6" vertex="1">
          <mxGeometry y="170" width="310" height="62" as="geometry" />
        </mxCell>
        <mxCell id="-6HKtMP87Wfs7apmkZVI-9" style="orthogonalLoop=1;jettySize=auto;html=1;entryX=1;entryY=0.5;entryDx=0;entryDy=0;strokeColor=#000000;sketch=1;rounded=1;exitX=0;exitY=0.5;exitDx=0;exitDy=0;edgeStyle=orthogonalEdgeStyle;startArrow=none;" parent="WIyWlLk6GJQsqaUBKTNV-1" source="OSWh80jPnmQAN3sRVBe3-5" target="-6HKtMP87Wfs7apmkZVI-7" edge="1">
          <mxGeometry relative="1" as="geometry">
            <Array as="points">
              <mxPoint x="410" y="-445" />
              <mxPoint x="410" y="-132" />
            </Array>
          </mxGeometry>
        </mxCell>
        <mxCell id="-6HKtMP87Wfs7apmkZVI-12" value="" style="endArrow=block;dashed=1;endFill=0;endSize=12;html=1;rounded=1;sketch=1;fontFamily=Comic Sans MS;entryX=0.5;entryY=0;entryDx=0;entryDy=0;exitX=0.474;exitY=1.043;exitDx=0;exitDy=0;exitPerimeter=0;" parent="WIyWlLk6GJQsqaUBKTNV-1" source="OSWh80jPnmQAN3sRVBe3-1" target="w3D9RBcbC0xk_d73lik7-21" edge="1">
          <mxGeometry width="160" relative="1" as="geometry">
            <mxPoint x="700" y="40" as="sourcePoint" />
            <mxPoint x="30" y="149.9959999999994" as="targetPoint" />
          </mxGeometry>
        </mxCell>
        <mxCell id="-6HKtMP87Wfs7apmkZVI-36" style="edgeStyle=orthogonalEdgeStyle;rounded=1;sketch=1;orthogonalLoop=1;jettySize=auto;html=1;entryX=0;entryY=0.5;entryDx=0;entryDy=0;strokeColor=#000000;dashed=1;exitX=1;exitY=0.5;exitDx=0;exitDy=0;" parent="WIyWlLk6GJQsqaUBKTNV-1" source="JRtBMN249R-x29OtQVno-10" target="-6HKtMP87Wfs7apmkZVI-8" edge="1">
          <mxGeometry relative="1" as="geometry">
            <mxPoint x="100" y="10" as="sourcePoint" />
          </mxGeometry>
        </mxCell>
        <mxCell id="-6HKtMP87Wfs7apmkZVI-38" value="&lt;font style=&quot;font-size: 18px&quot;&gt;参数&lt;/font&gt;" style="edgeLabel;html=1;align=center;verticalAlign=middle;resizable=0;points=[];fontColor=#FF0800;fontStyle=1" parent="-6HKtMP87Wfs7apmkZVI-36" vertex="1" connectable="0">
          <mxGeometry x="-0.2478" y="1" relative="1" as="geometry">
            <mxPoint y="43" as="offset" />
          </mxGeometry>
        </mxCell>
        <mxCell id="-6HKtMP87Wfs7apmkZVI-39" value="" style="shape=flexArrow;endArrow=classic;html=1;strokeColor=#000000;fontColor=#FF0800;sketch=1;startArrow=none;" parent="WIyWlLk6GJQsqaUBKTNV-1" source="-6HKtMP87Wfs7apmkZVI-40" edge="1">
          <mxGeometry width="50" height="50" relative="1" as="geometry">
            <mxPoint x="50" y="-342" as="sourcePoint" />
            <mxPoint x="375" y="-342" as="targetPoint" />
          </mxGeometry>
        </mxCell>
        <mxCell id="-6HKtMP87Wfs7apmkZVI-41" value="&lt;span style=&quot;color: rgb(255, 51, 51); font-size: 20px;&quot;&gt;return&lt;/span&gt;" style="html=1;verticalAlign=bottom;endArrow=open;dashed=1;endSize=8;rounded=1;sketch=1;fontFamily=Comic Sans MS;edgeStyle=orthogonalEdgeStyle;entryX=1.003;entryY=0.028;entryDx=0;entryDy=0;entryPerimeter=0;fontStyle=1" parent="WIyWlLk6GJQsqaUBKTNV-1" target="-6HKtMP87Wfs7apmkZVI-42" edge="1">
          <mxGeometry relative="1" as="geometry">
            <mxPoint x="40" y="505" as="sourcePoint" />
            <mxPoint x="-200" y="280" as="targetPoint" />
            <Array as="points">
              <mxPoint x="-70" y="505" />
              <mxPoint x="-70" y="65" />
            </Array>
          </mxGeometry>
        </mxCell>
        <mxCell id="-6HKtMP87Wfs7apmkZVI-42" value="SimulationManager" style="swimlane;fontStyle=1;childLayout=stackLayout;horizontal=1;startSize=26;horizontalStack=0;resizeParent=1;resizeParentMax=0;resizeLast=0;collapsible=1;marginBottom=0;shadow=0;glass=0;sketch=1;fontFamily=Comic Sans MS;fontSize=16;html=1;swimlaneLine=1;rounded=1;labelBackgroundColor=none;labelBorderColor=none;" parent="WIyWlLk6GJQsqaUBKTNV-1" vertex="1">
          <mxGeometry x="-680" y="50" width="380" height="530" as="geometry" />
        </mxCell>
        <mxCell id="-6HKtMP87Wfs7apmkZVI-43" value="模拟执行管理模块，包括step、run等常见模拟执行方法" style="text;align=left;verticalAlign=top;spacingLeft=4;spacingRight=4;overflow=hidden;rotatable=0;points=[[0,0.5],[1,0.5]];portConstraint=eastwest;shadow=0;glass=0;sketch=1;fontFamily=Comic Sans MS;fontSize=15;html=1;whiteSpace=wrap;strokeColor=#000000;" parent="-6HKtMP87Wfs7apmkZVI-42" vertex="1">
          <mxGeometry y="26" width="380" height="54" as="geometry" />
        </mxCell>
        <mxCell id="-6HKtMP87Wfs7apmkZVI-44" value="- _project&lt;br&gt;指向project" style="text;align=left;verticalAlign=top;spacingLeft=4;spacingRight=4;overflow=hidden;rotatable=0;points=[[0,0.5],[1,0.5]];portConstraint=eastwest;shadow=0;glass=0;sketch=1;fontFamily=Comic Sans MS;fontSize=15;html=1;whiteSpace=wrap;strokeColor=#000000;" parent="-6HKtMP87Wfs7apmkZVI-42" vertex="1">
          <mxGeometry y="80" width="380" height="50" as="geometry" />
        </mxCell>
        <mxCell id="-6HKtMP87Wfs7apmkZVI-67" value="- _stashes&lt;br&gt;存放所有状态&lt;br&gt;active: 下一个要执行的状态&lt;br&gt;deadended: 结束状态，后面没有了&lt;br&gt;··· ···" style="text;align=left;verticalAlign=top;spacingLeft=4;spacingRight=4;overflow=hidden;rotatable=0;points=[[0,0.5],[1,0.5]];portConstraint=eastwest;shadow=0;glass=0;sketch=1;fontFamily=Comic Sans MS;fontSize=15;html=1;whiteSpace=wrap;strokeColor=#000000;" parent="-6HKtMP87Wfs7apmkZVI-42" vertex="1">
          <mxGeometry y="130" width="380" height="100" as="geometry" />
        </mxCell>
        <mxCell id="-6HKtMP87Wfs7apmkZVI-47" value="" style="line;strokeWidth=1;align=left;verticalAlign=middle;spacingTop=-1;spacingLeft=3;spacingRight=3;rotatable=0;labelPosition=right;points=[];portConstraint=eastwest;rounded=1;shadow=0;glass=0;labelBackgroundColor=none;labelBorderColor=none;sketch=1;fontFamily=Comic Sans MS;fontSize=15;startSize=26;html=1;" parent="-6HKtMP87Wfs7apmkZVI-42" vertex="1">
          <mxGeometry y="230" width="380" height="8" as="geometry" />
        </mxCell>
        <mxCell id="-6HKtMP87Wfs7apmkZVI-45" value="- __init__&lt;br&gt;初始化需要给定一个程序状态，即SimState对象" style="text;align=left;verticalAlign=top;spacingLeft=4;spacingRight=4;overflow=hidden;rotatable=0;points=[[0,0.5],[1,0.5]];portConstraint=eastwest;shadow=0;glass=0;sketch=1;fontFamily=Comic Sans MS;fontSize=15;html=1;whiteSpace=wrap;strokeColor=#000000;" parent="-6HKtMP87Wfs7apmkZVI-42" vertex="1">
          <mxGeometry y="238" width="380" height="52" as="geometry" />
        </mxCell>
        <mxCell id="-6HKtMP87Wfs7apmkZVI-66" value="+ explore()&lt;br&gt;自动开启符号执行，寻找满足条件的目标状态(find、avoid)，或达到指定的次数上限&lt;br&gt;调用use_technique之后直接run" style="text;align=left;verticalAlign=top;spacingLeft=4;spacingRight=4;overflow=hidden;rotatable=0;points=[[0,0.5],[1,0.5]];portConstraint=eastwest;shadow=0;glass=0;sketch=1;fontFamily=Comic Sans MS;fontSize=15;html=1;whiteSpace=wrap;strokeColor=#000000;" parent="-6HKtMP87Wfs7apmkZVI-42" vertex="1">
          <mxGeometry y="290" width="380" height="90" as="geometry" />
        </mxCell>
        <mxCell id="-6HKtMP87Wfs7apmkZVI-50" value="+ use_technique()&lt;br&gt;指定Explore方法，可以同时指定多种" style="text;align=left;verticalAlign=top;spacingLeft=4;spacingRight=4;overflow=hidden;rotatable=0;points=[[0,0.5],[1,0.5]];portConstraint=eastwest;shadow=0;glass=0;sketch=1;fontFamily=Comic Sans MS;fontSize=15;html=1;whiteSpace=wrap;strokeColor=#000000;" parent="-6HKtMP87Wfs7apmkZVI-42" vertex="1">
          <mxGeometry y="380" width="380" height="50" as="geometry" />
        </mxCell>
        <mxCell id="-6HKtMP87Wfs7apmkZVI-49" value="+ run()&lt;br&gt;一直调用step()直到触发停止条件或到达次数上限" style="text;align=left;verticalAlign=top;spacingLeft=4;spacingRight=4;overflow=hidden;rotatable=0;points=[[0,0.5],[1,0.5]];portConstraint=eastwest;shadow=0;glass=0;sketch=1;fontFamily=Comic Sans MS;fontSize=15;html=1;whiteSpace=wrap;strokeColor=#000000;" parent="-6HKtMP87Wfs7apmkZVI-42" vertex="1">
          <mxGeometry y="430" width="380" height="50" as="geometry" />
        </mxCell>
        <mxCell id="-6HKtMP87Wfs7apmkZVI-46" value="+ step()&lt;br&gt;单步符号执行执行一个基本块" style="text;align=left;verticalAlign=top;spacingLeft=4;spacingRight=4;overflow=hidden;rotatable=0;points=[[0,0.5],[1,0.5]];portConstraint=eastwest;shadow=0;glass=0;sketch=1;fontFamily=Comic Sans MS;fontSize=15;html=1;whiteSpace=wrap;strokeColor=#000000;" parent="-6HKtMP87Wfs7apmkZVI-42" vertex="1">
          <mxGeometry y="480" width="380" height="50" as="geometry" />
        </mxCell>
        <mxCell id="-6HKtMP87Wfs7apmkZVI-68" value="" style="endArrow=block;dashed=1;endFill=0;endSize=12;html=1;rounded=1;sketch=1;fontFamily=Comic Sans MS;exitX=1;exitY=0.048;exitDx=0;exitDy=0;exitPerimeter=0;entryX=0;entryY=0.25;entryDx=0;entryDy=0;" parent="WIyWlLk6GJQsqaUBKTNV-1" source="G1SJ9XWwTOi_GsLU9m5k-49" target="G1SJ9XWwTOi_GsLU9m5k-45" edge="1">
          <mxGeometry width="160" relative="1" as="geometry">
            <mxPoint x="-400.00000000000045" y="790.0039999999995" as="sourcePoint" />
            <mxPoint x="-301" y="792.52" as="targetPoint" />
          </mxGeometry>
        </mxCell>
        <mxCell id="-6HKtMP87Wfs7apmkZVI-70" style="edgeStyle=orthogonalEdgeStyle;rounded=1;sketch=1;orthogonalLoop=1;jettySize=auto;html=1;entryX=0;entryY=0.5;entryDx=0;entryDy=0;strokeColor=#000000;exitX=1.003;exitY=0.128;exitDx=0;exitDy=0;exitPerimeter=0;dashed=1;" parent="WIyWlLk6GJQsqaUBKTNV-1" source="G1SJ9XWwTOi_GsLU9m5k-16" target="-6HKtMP87Wfs7apmkZVI-50" edge="1">
          <mxGeometry relative="1" as="geometry">
            <mxPoint x="-1090" y="250" as="sourcePoint" />
            <mxPoint x="-980" y="-178" as="targetPoint" />
          </mxGeometry>
        </mxCell>
        <mxCell id="-6HKtMP87Wfs7apmkZVI-71" value="&lt;font style=&quot;font-size: 18px&quot;&gt;参数&lt;/font&gt;" style="edgeLabel;html=1;align=center;verticalAlign=middle;resizable=0;points=[];fontColor=#FF0800;" parent="-6HKtMP87Wfs7apmkZVI-70" vertex="1" connectable="0">
          <mxGeometry x="-0.2478" y="1" relative="1" as="geometry">
            <mxPoint y="31.14" as="offset" />
          </mxGeometry>
        </mxCell>
        <mxCell id="-6HKtMP87Wfs7apmkZVI-72" value="ExplorationTechnique" style="swimlane;fontStyle=1;childLayout=stackLayout;horizontal=1;startSize=26;horizontalStack=0;resizeParent=1;resizeParentMax=0;resizeLast=0;collapsible=1;marginBottom=0;shadow=0;glass=0;sketch=1;fontFamily=Comic Sans MS;fontSize=16;html=1;swimlaneLine=1;rounded=1;labelBackgroundColor=none;labelBorderColor=none;" parent="WIyWlLk6GJQsqaUBKTNV-1" vertex="1">
          <mxGeometry x="-1120" y="150" width="240" height="106" as="geometry" />
        </mxCell>
        <mxCell id="-6HKtMP87Wfs7apmkZVI-73" value="探索的基类，其他探索方法由这个类派生" style="text;align=left;verticalAlign=top;spacingLeft=4;spacingRight=4;overflow=hidden;rotatable=0;points=[[0,0.5],[1,0.5]];portConstraint=eastwest;shadow=0;glass=0;sketch=1;fontFamily=Comic Sans MS;fontSize=15;html=1;strokeColor=#000000;whiteSpace=wrap;" parent="-6HKtMP87Wfs7apmkZVI-72" vertex="1">
          <mxGeometry y="26" width="240" height="54" as="geometry" />
        </mxCell>
        <mxCell id="-6HKtMP87Wfs7apmkZVI-74" value="+ field: type" style="text;align=left;verticalAlign=top;spacingLeft=4;spacingRight=4;overflow=hidden;rotatable=0;points=[[0,0.5],[1,0.5]];portConstraint=eastwest;shadow=0;glass=0;sketch=1;fontFamily=Comic Sans MS;fontSize=15;html=1;strokeColor=#000000;" parent="-6HKtMP87Wfs7apmkZVI-72" vertex="1">
          <mxGeometry y="80" width="240" height="26" as="geometry" />
        </mxCell>
        <mxCell id="-6HKtMP87Wfs7apmkZVI-75" value="" style="endArrow=block;dashed=1;endFill=0;endSize=12;html=1;rounded=1;sketch=1;fontFamily=Comic Sans MS;exitX=0.495;exitY=1.121;exitDx=0;exitDy=0;entryX=0.5;entryY=0;entryDx=0;entryDy=0;exitPerimeter=0;" parent="WIyWlLk6GJQsqaUBKTNV-1" source="-6HKtMP87Wfs7apmkZVI-74" target="G1SJ9XWwTOi_GsLU9m5k-16" edge="1">
          <mxGeometry width="160" relative="1" as="geometry">
            <mxPoint x="-830" y="215" as="sourcePoint" />
            <mxPoint x="-830" y="307" as="targetPoint" />
          </mxGeometry>
        </mxCell>
        <mxCell id="JRtBMN249R-x29OtQVno-0" value="SimStatePlugin" style="swimlane;fontStyle=1;childLayout=stackLayout;horizontal=1;startSize=26;horizontalStack=0;resizeParent=1;resizeParentMax=0;resizeLast=0;collapsible=1;marginBottom=0;shadow=0;glass=0;sketch=1;fontFamily=Comic Sans MS;fontSize=16;html=1;swimlaneLine=1;rounded=1;labelBackgroundColor=none;labelBorderColor=none;" parent="WIyWlLk6GJQsqaUBKTNV-1" vertex="1">
          <mxGeometry x="-400" y="-1940" width="220" height="98" as="geometry">
            <mxRectangle x="-440" y="752" width="200" height="30" as="alternateBounds" />
          </mxGeometry>
        </mxCell>
        <mxCell id="JRtBMN249R-x29OtQVno-1" value="插件类型的基础类，其他插件都是从该类派生的，比如求解器、寄存器、内存等..." style="text;align=left;verticalAlign=top;spacingLeft=4;spacingRight=4;overflow=hidden;rotatable=0;points=[[0,0.5],[1,0.5]];portConstraint=eastwest;shadow=0;glass=0;sketch=1;fontFamily=Comic Sans MS;fontSize=15;html=1;strokeColor=#000000;whiteSpace=wrap;" parent="JRtBMN249R-x29OtQVno-0" vertex="1">
          <mxGeometry y="26" width="220" height="64" as="geometry" />
        </mxCell>
        <mxCell id="JRtBMN249R-x29OtQVno-2" value="" style="line;strokeWidth=1;align=left;verticalAlign=middle;spacingTop=-1;spacingLeft=3;spacingRight=3;rotatable=0;labelPosition=right;points=[];portConstraint=eastwest;rounded=1;shadow=0;glass=0;labelBackgroundColor=none;labelBorderColor=none;sketch=1;fontFamily=Comic Sans MS;fontSize=15;startSize=26;html=1;" parent="JRtBMN249R-x29OtQVno-0" vertex="1">
          <mxGeometry y="90" width="220" height="8" as="geometry" />
        </mxCell>
        <mxCell id="JRtBMN249R-x29OtQVno-3" value="MemoryMixin(SimStatePlugin)" style="swimlane;fontStyle=1;childLayout=stackLayout;horizontal=1;startSize=26;horizontalStack=0;resizeParent=1;resizeParentMax=0;resizeLast=0;collapsible=1;marginBottom=0;shadow=0;glass=0;sketch=1;fontFamily=Comic Sans MS;fontSize=16;html=1;swimlaneLine=1;rounded=1;labelBackgroundColor=none;labelBorderColor=none;" parent="WIyWlLk6GJQsqaUBKTNV-1" vertex="1">
          <mxGeometry x="-430" y="-1760" width="280" height="230" as="geometry">
            <mxRectangle x="-440" y="752" width="200" height="30" as="alternateBounds" />
          </mxGeometry>
        </mxCell>
        <mxCell id="JRtBMN249R-x29OtQVno-4" value="内存的基础类，派生自SimStatePlugin" style="text;align=left;verticalAlign=top;spacingLeft=4;spacingRight=4;overflow=hidden;rotatable=0;points=[[0,0.5],[1,0.5]];portConstraint=eastwest;shadow=0;glass=0;sketch=1;fontFamily=Comic Sans MS;fontSize=15;html=1;strokeColor=#000000;whiteSpace=wrap;" parent="JRtBMN249R-x29OtQVno-3" vertex="1">
          <mxGeometry y="26" width="280" height="64" as="geometry" />
        </mxCell>
        <mxCell id="JRtBMN249R-x29OtQVno-5" value="" style="line;strokeWidth=1;align=left;verticalAlign=middle;spacingTop=-1;spacingLeft=3;spacingRight=3;rotatable=0;labelPosition=right;points=[];portConstraint=eastwest;rounded=1;shadow=0;glass=0;labelBackgroundColor=none;labelBorderColor=none;sketch=1;fontFamily=Comic Sans MS;fontSize=15;startSize=26;html=1;" parent="JRtBMN249R-x29OtQVno-3" vertex="1">
          <mxGeometry y="90" width="280" height="8" as="geometry" />
        </mxCell>
        <mxCell id="JRtBMN249R-x29OtQVno-48" value="+ load&lt;br&gt;获取指定地址的内存中的值，派生类负责实现" style="text;align=left;verticalAlign=top;spacingLeft=4;spacingRight=4;overflow=hidden;rotatable=0;points=[[0,0.5],[1,0.5]];portConstraint=eastwest;shadow=0;glass=0;sketch=1;fontFamily=Comic Sans MS;fontSize=15;html=1;strokeColor=#000000;whiteSpace=wrap;" parent="JRtBMN249R-x29OtQVno-3" vertex="1">
          <mxGeometry y="98" width="280" height="62" as="geometry" />
        </mxCell>
        <mxCell id="JRtBMN249R-x29OtQVno-49" value="+ store&lt;br&gt;将指定值/符号存入指定地址，派生类负责实现" style="text;align=left;verticalAlign=top;spacingLeft=4;spacingRight=4;overflow=hidden;rotatable=0;points=[[0,0.5],[1,0.5]];portConstraint=eastwest;shadow=0;glass=0;sketch=1;fontFamily=Comic Sans MS;fontSize=15;html=1;strokeColor=#000000;whiteSpace=wrap;rounded=1;" parent="JRtBMN249R-x29OtQVno-3" vertex="1">
          <mxGeometry y="160" width="280" height="70" as="geometry" />
        </mxCell>
        <mxCell id="JRtBMN249R-x29OtQVno-6" value="PagedMemoryMixin" style="swimlane;fontStyle=1;childLayout=stackLayout;horizontal=1;startSize=26;horizontalStack=0;resizeParent=1;resizeParentMax=0;resizeLast=0;collapsible=1;marginBottom=0;shadow=0;glass=0;sketch=1;fontFamily=Comic Sans MS;fontSize=16;html=1;swimlaneLine=1;rounded=1;labelBackgroundColor=none;labelBorderColor=none;" parent="WIyWlLk6GJQsqaUBKTNV-1" vertex="1">
          <mxGeometry x="120" y="-1390" width="440" height="430" as="geometry">
            <mxRectangle x="-440" y="752" width="200" height="30" as="alternateBounds" />
          </mxGeometry>
        </mxCell>
        <mxCell id="JRtBMN249R-x29OtQVno-7" value="页面内存基础类，派生自MemoryMixin，模拟一个内存页，以字节为单位存放内存的值或符号。该类也会继续派生出各种不同的内存页类。" style="text;align=left;verticalAlign=top;spacingLeft=4;spacingRight=4;overflow=hidden;rotatable=0;points=[[0,0.5],[1,0.5]];portConstraint=eastwest;shadow=0;glass=0;sketch=1;fontFamily=Comic Sans MS;fontSize=15;html=1;strokeColor=#000000;whiteSpace=wrap;" parent="JRtBMN249R-x29OtQVno-6" vertex="1">
          <mxGeometry y="26" width="440" height="64" as="geometry" />
        </mxCell>
        <mxCell id="Z9_WpyUp3ctRPymMz_iH-15" value="+ page_size&lt;br&gt;表示一页的大小" style="text;align=left;verticalAlign=top;spacingLeft=4;spacingRight=4;overflow=hidden;rotatable=0;points=[[0,0.5],[1,0.5]];portConstraint=eastwest;shadow=0;glass=0;sketch=1;fontFamily=Comic Sans MS;fontSize=15;html=1;strokeColor=#000000;whiteSpace=wrap;" parent="JRtBMN249R-x29OtQVno-6" vertex="1">
          <mxGeometry y="90" width="440" height="50" as="geometry" />
        </mxCell>
        <mxCell id="Z9_WpyUp3ctRPymMz_iH-16" value="- _permissions_map&lt;br&gt;页面权限" style="text;align=left;verticalAlign=top;spacingLeft=4;spacingRight=4;overflow=hidden;rotatable=0;points=[[0,0.5],[1,0.5]];portConstraint=eastwest;shadow=0;glass=0;sketch=1;fontFamily=Comic Sans MS;fontSize=15;html=1;strokeColor=#000000;whiteSpace=wrap;" parent="JRtBMN249R-x29OtQVno-6" vertex="1">
          <mxGeometry y="140" width="440" height="50" as="geometry" />
        </mxCell>
        <mxCell id="Z9_WpyUp3ctRPymMz_iH-41" value="+ PAGE_TYPE&lt;br&gt;表示实现模拟页面的类，一般由该类的派生类指定" style="text;align=left;verticalAlign=top;spacingLeft=4;spacingRight=4;overflow=hidden;rotatable=0;points=[[0,0.5],[1,0.5]];portConstraint=eastwest;shadow=0;glass=0;sketch=1;fontFamily=Comic Sans MS;fontSize=15;html=1;strokeColor=#000000;whiteSpace=wrap;" parent="JRtBMN249R-x29OtQVno-6" vertex="1">
          <mxGeometry y="190" width="440" height="50" as="geometry" />
        </mxCell>
        <mxCell id="Z9_WpyUp3ctRPymMz_iH-17" value="- _pages-&amp;gt;dict of PAGE_TYPE&lt;br&gt;页的字典，根据页地址计算出页字典下标&lt;br&gt;PAGE_TYPE根据该类派生的模拟的页种类不同而不同" style="text;align=left;verticalAlign=top;spacingLeft=4;spacingRight=4;overflow=hidden;rotatable=0;points=[[0,0.5],[1,0.5]];portConstraint=eastwest;shadow=0;glass=0;sketch=1;fontFamily=Comic Sans MS;fontSize=15;html=1;strokeColor=#000000;whiteSpace=wrap;" parent="JRtBMN249R-x29OtQVno-6" vertex="1">
          <mxGeometry y="240" width="440" height="70" as="geometry" />
        </mxCell>
        <mxCell id="JRtBMN249R-x29OtQVno-8" value="" style="line;strokeWidth=1;align=left;verticalAlign=middle;spacingTop=-1;spacingLeft=3;spacingRight=3;rotatable=0;labelPosition=right;points=[];portConstraint=eastwest;rounded=1;shadow=0;glass=0;labelBackgroundColor=none;labelBorderColor=none;sketch=1;fontFamily=Comic Sans MS;fontSize=15;startSize=26;html=1;" parent="JRtBMN249R-x29OtQVno-6" vertex="1">
          <mxGeometry y="310" width="440" height="8" as="geometry" />
        </mxCell>
        <mxCell id="Z9_WpyUp3ctRPymMz_iH-19" value="+ load&lt;br&gt;这是最后的内存读操作了，这里addr 和size 必须都是整数&lt;br&gt;调用从_pages中找到的对应偏移的page的load方法完成读操作" style="text;align=left;verticalAlign=top;spacingLeft=4;spacingRight=4;overflow=hidden;rotatable=0;points=[[0,0.5],[1,0.5]];portConstraint=eastwest;shadow=0;glass=0;sketch=1;fontFamily=Comic Sans MS;fontSize=15;html=1;strokeColor=#000000;whiteSpace=wrap;" parent="JRtBMN249R-x29OtQVno-6" vertex="1">
          <mxGeometry y="318" width="440" height="62" as="geometry" />
        </mxCell>
        <mxCell id="Z9_WpyUp3ctRPymMz_iH-20" value="+ store&lt;br&gt;和上面load类似" style="text;align=left;verticalAlign=top;spacingLeft=4;spacingRight=4;overflow=hidden;rotatable=0;points=[[0,0.5],[1,0.5]];portConstraint=eastwest;shadow=0;glass=0;sketch=1;fontFamily=Comic Sans MS;fontSize=15;html=1;strokeColor=#000000;whiteSpace=wrap;rounded=1;" parent="JRtBMN249R-x29OtQVno-6" vertex="1">
          <mxGeometry y="380" width="440" height="50" as="geometry" />
        </mxCell>
        <mxCell id="JRtBMN249R-x29OtQVno-9" value="DefaultMemory" style="swimlane;fontStyle=1;childLayout=stackLayout;horizontal=1;startSize=26;horizontalStack=0;resizeParent=1;resizeParentMax=0;resizeLast=0;collapsible=1;marginBottom=0;shadow=0;glass=0;sketch=1;fontFamily=Comic Sans MS;fontSize=16;html=1;swimlaneLine=1;rounded=1;labelBackgroundColor=none;labelBorderColor=none;" parent="WIyWlLk6GJQsqaUBKTNV-1" vertex="1">
          <mxGeometry x="-440" y="-400" width="300" height="200" as="geometry">
            <mxRectangle x="-440" y="752" width="200" height="30" as="alternateBounds" />
          </mxGeometry>
        </mxCell>
        <mxCell id="JRtBMN249R-x29OtQVno-10" value="默认的内存插件，被注册为sym_memory插件，派生自多个类。" style="text;align=left;verticalAlign=top;spacingLeft=4;spacingRight=4;overflow=hidden;rotatable=0;points=[[0,0.5],[1,0.5]];portConstraint=eastwest;shadow=0;glass=0;sketch=1;fontFamily=Comic Sans MS;fontSize=15;html=1;strokeColor=#000000;whiteSpace=wrap;" parent="JRtBMN249R-x29OtQVno-9" vertex="1">
          <mxGeometry y="26" width="300" height="64" as="geometry" />
        </mxCell>
        <mxCell id="JRtBMN249R-x29OtQVno-11" value="" style="line;strokeWidth=1;align=left;verticalAlign=middle;spacingTop=-1;spacingLeft=3;spacingRight=3;rotatable=0;labelPosition=right;points=[];portConstraint=eastwest;rounded=1;shadow=0;glass=0;labelBackgroundColor=none;labelBorderColor=none;sketch=1;fontFamily=Comic Sans MS;fontSize=15;startSize=26;html=1;" parent="JRtBMN249R-x29OtQVno-9" vertex="1">
          <mxGeometry y="90" width="300" height="8" as="geometry" />
        </mxCell>
        <mxCell id="Z9_WpyUp3ctRPymMz_iH-55" value="+ load&lt;br&gt;最终提现在state.memory.load()" style="text;align=left;verticalAlign=top;spacingLeft=4;spacingRight=4;overflow=hidden;rotatable=0;points=[[0,0.5],[1,0.5]];portConstraint=eastwest;shadow=0;glass=0;sketch=1;fontFamily=Comic Sans MS;fontSize=15;html=1;strokeColor=#000000;whiteSpace=wrap;" parent="JRtBMN249R-x29OtQVno-9" vertex="1">
          <mxGeometry y="98" width="300" height="52" as="geometry" />
        </mxCell>
        <mxCell id="Z9_WpyUp3ctRPymMz_iH-56" value="+ store&lt;br&gt;最终提现在state.memory.store()" style="text;align=left;verticalAlign=top;spacingLeft=4;spacingRight=4;overflow=hidden;rotatable=0;points=[[0,0.5],[1,0.5]];portConstraint=eastwest;shadow=0;glass=0;sketch=1;fontFamily=Comic Sans MS;fontSize=15;html=1;strokeColor=#000000;whiteSpace=wrap;rounded=1;" parent="JRtBMN249R-x29OtQVno-9" vertex="1">
          <mxGeometry y="150" width="300" height="50" as="geometry" />
        </mxCell>
        <mxCell id="JRtBMN249R-x29OtQVno-15" value="SimSolver(SimStatePlugin)" style="swimlane;fontStyle=1;childLayout=stackLayout;horizontal=1;startSize=26;horizontalStack=0;resizeParent=1;resizeParentMax=0;resizeLast=0;collapsible=1;marginBottom=0;shadow=0;glass=0;sketch=1;fontFamily=Comic Sans MS;fontSize=16;html=1;swimlaneLine=1;rounded=1;labelBackgroundColor=none;labelBorderColor=none;" parent="WIyWlLk6GJQsqaUBKTNV-1" vertex="1">
          <mxGeometry x="-1070" y="-1830" width="410" height="360" as="geometry">
            <mxRectangle x="-440" y="752" width="200" height="30" as="alternateBounds" />
          </mxGeometry>
        </mxCell>
        <mxCell id="JRtBMN249R-x29OtQVno-16" value="求解约束类，求解器也是一个插件，主要是通过claripy实现的" style="text;align=left;verticalAlign=top;spacingLeft=4;spacingRight=4;overflow=hidden;rotatable=0;points=[[0,0.5],[1,0.5]];portConstraint=eastwest;shadow=0;glass=0;sketch=1;fontFamily=Comic Sans MS;fontSize=15;html=1;strokeColor=#000000;whiteSpace=wrap;" parent="JRtBMN249R-x29OtQVno-15" vertex="1">
          <mxGeometry y="26" width="410" height="64" as="geometry" />
        </mxCell>
        <mxCell id="OSWh80jPnmQAN3sRVBe3-12" value="- _stored_solver&lt;br&gt;别名_solver&lt;br&gt;一个求解器，可能是cvc4、z3、abc什么的" style="text;align=left;verticalAlign=top;spacingLeft=4;spacingRight=4;overflow=hidden;rotatable=0;points=[[0,0.5],[1,0.5]];portConstraint=eastwest;shadow=0;glass=0;sketch=1;fontFamily=Comic Sans MS;fontSize=15;html=1;strokeColor=#000000;whiteSpace=wrap;" parent="JRtBMN249R-x29OtQVno-15" vertex="1">
          <mxGeometry y="90" width="410" height="64" as="geometry" />
        </mxCell>
        <mxCell id="JRtBMN249R-x29OtQVno-17" value="" style="line;strokeWidth=1;align=left;verticalAlign=middle;spacingTop=-1;spacingLeft=3;spacingRight=3;rotatable=0;labelPosition=right;points=[];portConstraint=eastwest;rounded=1;shadow=0;glass=0;labelBackgroundColor=none;labelBorderColor=none;sketch=1;fontFamily=Comic Sans MS;fontSize=15;startSize=26;html=1;" parent="JRtBMN249R-x29OtQVno-15" vertex="1">
          <mxGeometry y="154" width="410" height="8" as="geometry" />
        </mxCell>
        <mxCell id="OSWh80jPnmQAN3sRVBe3-11" value="+ BVS&lt;br&gt;添加一个符号变量，符号变量通过claripy.BVS实现&lt;br&gt;" style="text;align=left;verticalAlign=top;spacingLeft=4;spacingRight=4;overflow=hidden;rotatable=0;points=[[0,0.5],[1,0.5]];portConstraint=eastwest;shadow=0;glass=0;sketch=1;fontFamily=Comic Sans MS;fontSize=15;html=1;strokeColor=#000000;whiteSpace=wrap;rounded=0;" parent="JRtBMN249R-x29OtQVno-15" vertex="1">
          <mxGeometry y="162" width="410" height="48" as="geometry" />
        </mxCell>
        <mxCell id="OSWh80jPnmQAN3sRVBe3-13" value="+ BVV&lt;br&gt;添加一个向量，通过claripy.BVS实现" style="text;align=left;verticalAlign=top;spacingLeft=4;spacingRight=4;overflow=hidden;rotatable=0;points=[[0,0.5],[1,0.5]];portConstraint=eastwest;shadow=0;glass=0;sketch=1;fontFamily=Comic Sans MS;fontSize=15;html=1;strokeColor=#000000;whiteSpace=wrap;rounded=0;" parent="JRtBMN249R-x29OtQVno-15" vertex="1">
          <mxGeometry y="210" width="410" height="50" as="geometry" />
        </mxCell>
        <mxCell id="OSWh80jPnmQAN3sRVBe3-20" value="+ add&lt;br&gt;添加一个约束，通过_solver添加" style="text;align=left;verticalAlign=top;spacingLeft=4;spacingRight=4;overflow=hidden;rotatable=0;points=[[0,0.5],[1,0.5]];portConstraint=eastwest;shadow=0;glass=0;sketch=1;fontFamily=Comic Sans MS;fontSize=15;html=1;strokeColor=#000000;whiteSpace=wrap;rounded=0;" parent="JRtBMN249R-x29OtQVno-15" vertex="1">
          <mxGeometry y="260" width="410" height="50" as="geometry" />
        </mxCell>
        <mxCell id="OSWh80jPnmQAN3sRVBe3-21" value="+ eval&lt;br&gt;求解一个符号" style="text;align=left;verticalAlign=top;spacingLeft=4;spacingRight=4;overflow=hidden;rotatable=0;points=[[0,0.5],[1,0.5]];portConstraint=eastwest;shadow=0;glass=0;sketch=1;fontFamily=Comic Sans MS;fontSize=15;html=1;strokeColor=#000000;whiteSpace=wrap;rounded=1;" parent="JRtBMN249R-x29OtQVno-15" vertex="1">
          <mxGeometry y="310" width="410" height="50" as="geometry" />
        </mxCell>
        <mxCell id="JRtBMN249R-x29OtQVno-19" value="AddressConcretizationMixin" style="swimlane;fontStyle=1;childLayout=stackLayout;horizontal=1;startSize=26;horizontalStack=0;resizeParent=1;resizeParentMax=0;resizeLast=0;collapsible=1;marginBottom=0;shadow=0;glass=0;sketch=1;fontFamily=Comic Sans MS;fontSize=16;html=1;swimlaneLine=1;rounded=1;labelBackgroundColor=none;labelBorderColor=none;" parent="WIyWlLk6GJQsqaUBKTNV-1" vertex="1">
          <mxGeometry x="-535" y="-1390" width="490" height="830" as="geometry">
            <mxRectangle x="-440" y="752" width="200" height="30" as="alternateBounds" />
          </mxGeometry>
        </mxCell>
        <mxCell id="JRtBMN249R-x29OtQVno-20" value="涉及到读写符号地址的时候的执行方法，需要指定read_strategies、和write_strategies对象，来进行具体的处理" style="text;align=left;verticalAlign=top;spacingLeft=4;spacingRight=4;overflow=hidden;rotatable=0;points=[[0,0.5],[1,0.5]];portConstraint=eastwest;shadow=0;glass=0;sketch=1;fontFamily=Comic Sans MS;fontSize=15;html=1;strokeColor=#000000;whiteSpace=wrap;" parent="JRtBMN249R-x29OtQVno-19" vertex="1">
          <mxGeometry y="26" width="490" height="64" as="geometry" />
        </mxCell>
        <mxCell id="JRtBMN249R-x29OtQVno-21" value="+ read_strategies&lt;br&gt;一个列表，可以存放多个策略&lt;br&gt;读符号化内存的策略，通过初始化指定" style="text;align=left;verticalAlign=top;spacingLeft=4;spacingRight=4;overflow=hidden;rotatable=0;points=[[0,0.5],[1,0.5]];portConstraint=eastwest;shadow=0;glass=0;sketch=1;fontFamily=Comic Sans MS;fontSize=15;html=1;strokeColor=#000000;whiteSpace=wrap;" parent="JRtBMN249R-x29OtQVno-19" vertex="1">
          <mxGeometry y="90" width="490" height="70" as="geometry" />
        </mxCell>
        <mxCell id="JRtBMN249R-x29OtQVno-22" value="+ write_strategies&lt;br&gt;一个列表，可以存放多个策略&lt;br&gt;写符号化内存的策略，通过初始化指定" style="text;align=left;verticalAlign=top;spacingLeft=4;spacingRight=4;overflow=hidden;rotatable=0;points=[[0,0.5],[1,0.5]];portConstraint=eastwest;shadow=0;glass=0;sketch=1;fontFamily=Comic Sans MS;fontSize=15;html=1;strokeColor=#000000;whiteSpace=wrap;" parent="JRtBMN249R-x29OtQVno-19" vertex="1">
          <mxGeometry y="160" width="490" height="70" as="geometry" />
        </mxCell>
        <mxCell id="JRtBMN249R-x29OtQVno-23" value="" style="line;strokeWidth=1;align=left;verticalAlign=middle;spacingTop=-1;spacingLeft=3;spacingRight=3;rotatable=0;labelPosition=right;points=[];portConstraint=eastwest;rounded=1;shadow=0;glass=0;labelBackgroundColor=none;labelBorderColor=none;sketch=1;fontFamily=Comic Sans MS;fontSize=15;startSize=26;html=1;" parent="JRtBMN249R-x29OtQVno-19" vertex="1">
          <mxGeometry y="230" width="490" height="8" as="geometry" />
        </mxCell>
        <mxCell id="JRtBMN249R-x29OtQVno-24" value="+ set_state&lt;br&gt;如果初始化没指定则会将读写策略设置成默认策略" style="text;align=left;verticalAlign=top;spacingLeft=4;spacingRight=4;overflow=hidden;rotatable=0;points=[[0,0.5],[1,0.5]];portConstraint=eastwest;shadow=0;glass=0;sketch=1;fontFamily=Comic Sans MS;fontSize=15;html=1;strokeColor=#000000;whiteSpace=wrap;" parent="JRtBMN249R-x29OtQVno-19" vertex="1">
          <mxGeometry y="238" width="490" height="52" as="geometry" />
        </mxCell>
        <mxCell id="JRtBMN249R-x29OtQVno-25" value="- _create_default_write_strategies&lt;br&gt;创建默认写策略，用于向符号地址中写入数据。默认有两种策略，先Range(范围)，后Max(最大)。" style="text;align=left;verticalAlign=top;spacingLeft=4;spacingRight=4;overflow=hidden;rotatable=0;points=[[0,0.5],[1,0.5]];portConstraint=eastwest;shadow=0;glass=0;sketch=1;fontFamily=Comic Sans MS;fontSize=15;html=1;strokeColor=#000000;whiteSpace=wrap;" parent="JRtBMN249R-x29OtQVno-19" vertex="1">
          <mxGeometry y="290" width="490" height="70" as="geometry" />
        </mxCell>
        <mxCell id="Z9_WpyUp3ctRPymMz_iH-0" value="- _create_default_read_strategies&lt;br&gt;创建默认读策略，用于从符号地址中读出数据。默认有两种策略，先Range(范围)，后Any(随便来一个)。" style="text;align=left;verticalAlign=top;spacingLeft=4;spacingRight=4;overflow=hidden;rotatable=0;points=[[0,0.5],[1,0.5]];portConstraint=eastwest;shadow=0;glass=0;sketch=1;fontFamily=Comic Sans MS;fontSize=15;html=1;strokeColor=#000000;whiteSpace=wrap;" parent="JRtBMN249R-x29OtQVno-19" vertex="1">
          <mxGeometry y="360" width="490" height="70" as="geometry" />
        </mxCell>
        <mxCell id="JRtBMN249R-x29OtQVno-26" value="+ concretize_write_addr&lt;br&gt;通过指定的策略来实现向符号地址写入数据，会遍历self.write_strategies中的策略依次执行，如果有成功的直接返回。" style="text;align=left;verticalAlign=top;spacingLeft=4;spacingRight=4;overflow=hidden;rotatable=0;points=[[0,0.5],[1,0.5]];portConstraint=eastwest;shadow=0;glass=0;sketch=1;fontFamily=Comic Sans MS;fontSize=15;html=1;strokeColor=#000000;whiteSpace=wrap;rounded=0;" parent="JRtBMN249R-x29OtQVno-19" vertex="1">
          <mxGeometry y="430" width="490" height="70" as="geometry" />
        </mxCell>
        <mxCell id="Z9_WpyUp3ctRPymMz_iH-10" value="+ concretize_read_addr&lt;br&gt;通过指定的策略来实现从符号地址读出数据，会遍历self.read_strategies中的策略依次执行，如果有成功的直接返回。" style="text;align=left;verticalAlign=top;spacingLeft=4;spacingRight=4;overflow=hidden;rotatable=0;points=[[0,0.5],[1,0.5]];portConstraint=eastwest;shadow=0;glass=0;sketch=1;fontFamily=Comic Sans MS;fontSize=15;html=1;strokeColor=#000000;whiteSpace=wrap;rounded=0;" parent="JRtBMN249R-x29OtQVno-19" vertex="1">
          <mxGeometry y="500" width="490" height="70" as="geometry" />
        </mxCell>
        <mxCell id="Z9_WpyUp3ctRPymMz_iH-12" value="+ load&lt;br&gt;实现的内存插件最基本的从符号内存读取数据的方法&lt;br&gt;重点针对符号内存地址处理，对非符号(整数)内存地址和只有唯一解的符号内存地址直接交给下一个插件继续。&lt;br&gt;&lt;br&gt;使用self.concretize_write_addr方法会获得若干个地址可能的具体值。对于每一个都会尝试读取，然后合并成一个逻辑表达式。&lt;br&gt;&lt;br&gt;所以最后返回的可能是一个逻辑表达式(if addr = xx 则 elif adr=xx 则 else 则)" style="text;align=left;verticalAlign=top;spacingLeft=4;spacingRight=4;overflow=hidden;rotatable=0;points=[[0,0.5],[1,0.5]];portConstraint=eastwest;shadow=0;glass=0;sketch=1;fontFamily=Comic Sans MS;fontSize=15;html=1;strokeColor=#000000;whiteSpace=wrap;" parent="JRtBMN249R-x29OtQVno-19" vertex="1">
          <mxGeometry y="570" width="490" height="190" as="geometry" />
        </mxCell>
        <mxCell id="Z9_WpyUp3ctRPymMz_iH-13" value="+ store&lt;br&gt;实现的内存插件最基本的向符号内存写入数据的方法&lt;br&gt;类似load，对于符号的具现化之后的所有值都会交给下一棒store处理" style="text;align=left;verticalAlign=top;spacingLeft=4;spacingRight=4;overflow=hidden;rotatable=0;points=[[0,0.5],[1,0.5]];portConstraint=eastwest;shadow=0;glass=0;sketch=1;fontFamily=Comic Sans MS;fontSize=15;html=1;strokeColor=#000000;whiteSpace=wrap;rounded=1;" parent="JRtBMN249R-x29OtQVno-19" vertex="1">
          <mxGeometry y="760" width="490" height="70" as="geometry" />
        </mxCell>
        <mxCell id="JRtBMN249R-x29OtQVno-34" value="SimConcretizationStrategy" style="swimlane;fontStyle=1;childLayout=stackLayout;horizontal=1;startSize=26;horizontalStack=0;resizeParent=1;resizeParentMax=0;resizeLast=0;collapsible=1;marginBottom=0;shadow=0;glass=0;sketch=1;fontFamily=Comic Sans MS;fontSize=16;html=1;swimlaneLine=1;rounded=1;labelBackgroundColor=none;labelBorderColor=none;" parent="WIyWlLk6GJQsqaUBKTNV-1" vertex="1">
          <mxGeometry x="-1610" y="-954" width="260" height="140" as="geometry">
            <mxRectangle x="-440" y="752" width="200" height="30" as="alternateBounds" />
          </mxGeometry>
        </mxCell>
        <mxCell id="JRtBMN249R-x29OtQVno-35" value="符号化内存具现化策略类，通过从这个类派生其他类来实现其他策略" style="text;align=left;verticalAlign=top;spacingLeft=4;spacingRight=4;overflow=hidden;rotatable=0;points=[[0,0.5],[1,0.5]];portConstraint=eastwest;shadow=0;glass=0;sketch=1;fontFamily=Comic Sans MS;fontSize=15;html=1;strokeColor=#000000;whiteSpace=wrap;" parent="JRtBMN249R-x29OtQVno-34" vertex="1">
          <mxGeometry y="26" width="260" height="54" as="geometry" />
        </mxCell>
        <mxCell id="JRtBMN249R-x29OtQVno-36" value="" style="line;strokeWidth=1;align=left;verticalAlign=middle;spacingTop=-1;spacingLeft=3;spacingRight=3;rotatable=0;labelPosition=right;points=[];portConstraint=eastwest;rounded=1;shadow=0;glass=0;labelBackgroundColor=none;labelBorderColor=none;sketch=1;fontFamily=Comic Sans MS;fontSize=15;startSize=26;html=1;" parent="JRtBMN249R-x29OtQVno-34" vertex="1">
          <mxGeometry y="80" width="260" height="8" as="geometry" />
        </mxCell>
        <mxCell id="JRtBMN249R-x29OtQVno-37" value="+ concretize&lt;br&gt;将符号化内存具现化的方法" style="text;align=left;verticalAlign=top;spacingLeft=4;spacingRight=4;overflow=hidden;rotatable=0;points=[[0,0.5],[1,0.5]];portConstraint=eastwest;shadow=0;glass=0;sketch=1;fontFamily=Comic Sans MS;fontSize=15;html=1;strokeColor=#000000;whiteSpace=wrap;" parent="JRtBMN249R-x29OtQVno-34" vertex="1">
          <mxGeometry y="88" width="260" height="52" as="geometry" />
        </mxCell>
        <mxCell id="JRtBMN249R-x29OtQVno-39" value="SimConcretizationStrategyAny" style="swimlane;fontStyle=1;childLayout=stackLayout;horizontal=1;startSize=26;horizontalStack=0;resizeParent=1;resizeParentMax=0;resizeLast=0;collapsible=1;marginBottom=0;shadow=0;glass=0;sketch=1;fontFamily=Comic Sans MS;fontSize=16;html=1;swimlaneLine=1;rounded=1;labelBackgroundColor=none;labelBorderColor=none;" parent="WIyWlLk6GJQsqaUBKTNV-1" vertex="1">
          <mxGeometry x="-1200" y="-820" width="280" height="88" as="geometry">
            <mxRectangle x="-440" y="752" width="200" height="30" as="alternateBounds" />
          </mxGeometry>
        </mxCell>
        <mxCell id="JRtBMN249R-x29OtQVno-40" value="随便来一个满足条件的值的策略" style="text;align=left;verticalAlign=top;spacingLeft=4;spacingRight=4;overflow=hidden;rotatable=0;points=[[0,0.5],[1,0.5]];portConstraint=eastwest;shadow=0;glass=0;sketch=1;fontFamily=Comic Sans MS;fontSize=15;html=1;strokeColor=#000000;whiteSpace=wrap;" parent="JRtBMN249R-x29OtQVno-39" vertex="1">
          <mxGeometry y="26" width="280" height="54" as="geometry" />
        </mxCell>
        <mxCell id="JRtBMN249R-x29OtQVno-41" value="" style="line;strokeWidth=1;align=left;verticalAlign=middle;spacingTop=-1;spacingLeft=3;spacingRight=3;rotatable=0;labelPosition=right;points=[];portConstraint=eastwest;rounded=1;shadow=0;glass=0;labelBackgroundColor=none;labelBorderColor=none;sketch=1;fontFamily=Comic Sans MS;fontSize=15;startSize=26;html=1;" parent="JRtBMN249R-x29OtQVno-39" vertex="1">
          <mxGeometry y="80" width="280" height="8" as="geometry" />
        </mxCell>
        <mxCell id="JRtBMN249R-x29OtQVno-43" value="SimConcretizationStrategyMax" style="swimlane;fontStyle=1;childLayout=stackLayout;horizontal=1;startSize=26;horizontalStack=0;resizeParent=1;resizeParentMax=0;resizeLast=0;collapsible=1;marginBottom=0;shadow=0;glass=0;sketch=1;fontFamily=Comic Sans MS;fontSize=16;html=1;swimlaneLine=1;rounded=1;labelBackgroundColor=none;labelBorderColor=none;" parent="WIyWlLk6GJQsqaUBKTNV-1" vertex="1">
          <mxGeometry x="-1200" y="-1070" width="280" height="88" as="geometry">
            <mxRectangle x="-440" y="752" width="200" height="30" as="alternateBounds" />
          </mxGeometry>
        </mxCell>
        <mxCell id="JRtBMN249R-x29OtQVno-44" value="获得符号化内存中值最大值的派生策略" style="text;align=left;verticalAlign=top;spacingLeft=4;spacingRight=4;overflow=hidden;rotatable=0;points=[[0,0.5],[1,0.5]];portConstraint=eastwest;shadow=0;glass=0;sketch=1;fontFamily=Comic Sans MS;fontSize=15;html=1;strokeColor=#000000;whiteSpace=wrap;" parent="JRtBMN249R-x29OtQVno-43" vertex="1">
          <mxGeometry y="26" width="280" height="54" as="geometry" />
        </mxCell>
        <mxCell id="JRtBMN249R-x29OtQVno-45" value="" style="line;strokeWidth=1;align=left;verticalAlign=middle;spacingTop=-1;spacingLeft=3;spacingRight=3;rotatable=0;labelPosition=right;points=[];portConstraint=eastwest;rounded=1;shadow=0;glass=0;labelBackgroundColor=none;labelBorderColor=none;sketch=1;fontFamily=Comic Sans MS;fontSize=15;startSize=26;html=1;" parent="JRtBMN249R-x29OtQVno-43" vertex="1">
          <mxGeometry y="80" width="280" height="8" as="geometry" />
        </mxCell>
        <mxCell id="JRtBMN249R-x29OtQVno-51" value="&lt;h3 style=&quot;font-size: 15px;&quot;&gt;angr 的设计模式Mixin&lt;/h3&gt;angr 的一个设计模式MIxin模式，从一个基类根据不同的小功能模块派生出一堆扩展类根据某个大功能需要的若干小功能，将这些小功能的扩展类一起用python 多继承的方法派生出一个最终的实现大功能的类。在调用该大功能中某个实现方法的时候，会依次使用super 调用下一个小功能中的该方法。" style="rounded=0;whiteSpace=wrap;html=1;fillColor=#fff2cc;sketch=1;align=left;fontSize=15;dashed=1;strokeWidth=2;perimeterSpacing=0;verticalAlign=middle;spacingLeft=7;spacingBottom=7;spacingRight=7;strokeColor=#d6b656;fontFamily=Comic Sans MS;" parent="WIyWlLk6GJQsqaUBKTNV-1" vertex="1">
          <mxGeometry x="-100" y="-1940" width="420" height="170" as="geometry" />
        </mxCell>
        <mxCell id="Z9_WpyUp3ctRPymMz_iH-14" value="" style="endArrow=block;dashed=1;endFill=0;endSize=12;html=1;rounded=1;sketch=1;fontFamily=Comic Sans MS;entryX=0.5;entryY=0;entryDx=0;entryDy=0;exitX=0.5;exitY=1;exitDx=0;exitDy=0;" parent="WIyWlLk6GJQsqaUBKTNV-1" source="JRtBMN249R-x29OtQVno-0" target="JRtBMN249R-x29OtQVno-3" edge="1">
          <mxGeometry width="160" relative="1" as="geometry">
            <mxPoint x="-90" y="-1850" as="sourcePoint" />
            <mxPoint x="70" y="-1780" as="targetPoint" />
          </mxGeometry>
        </mxCell>
        <mxCell id="Z9_WpyUp3ctRPymMz_iH-21" value="PageBase(HistoryTrackingMixin, RefcountMixin, CooperationBase, ISPOMixin, PermissionMixin, MemoryMixin)" style="swimlane;fontStyle=1;childLayout=stackLayout;horizontal=1;startSize=60;horizontalStack=0;resizeParent=1;resizeParentMax=0;resizeLast=0;collapsible=1;marginBottom=0;shadow=0;glass=0;sketch=1;fontFamily=Comic Sans MS;fontSize=16;html=1;swimlaneLine=1;rounded=1;labelBackgroundColor=none;labelBorderColor=none;whiteSpace=wrap;" parent="WIyWlLk6GJQsqaUBKTNV-1" vertex="1">
          <mxGeometry x="750" y="-1410" width="490" height="138" as="geometry">
            <mxRectangle x="-440" y="752" width="200" height="30" as="alternateBounds" />
          </mxGeometry>
        </mxCell>
        <mxCell id="Z9_WpyUp3ctRPymMz_iH-22" value="模拟内存页的最基本类型，其他内存页类都派生自该类。最后用于PageMemoryMixin以及其派生类中的_pages之中，单个PageBase类的实例只代表一个模拟页。" style="text;align=left;verticalAlign=top;spacingLeft=4;spacingRight=4;overflow=hidden;rotatable=0;points=[[0,0.5],[1,0.5]];portConstraint=eastwest;shadow=0;glass=0;sketch=1;fontFamily=Comic Sans MS;fontSize=15;html=1;strokeColor=#000000;whiteSpace=wrap;" parent="Z9_WpyUp3ctRPymMz_iH-21" vertex="1">
          <mxGeometry y="60" width="490" height="70" as="geometry" />
        </mxCell>
        <mxCell id="Z9_WpyUp3ctRPymMz_iH-23" value="" style="line;strokeWidth=1;align=left;verticalAlign=middle;spacingTop=-1;spacingLeft=3;spacingRight=3;rotatable=0;labelPosition=right;points=[];portConstraint=eastwest;rounded=1;shadow=0;glass=0;labelBackgroundColor=none;labelBorderColor=none;sketch=1;fontFamily=Comic Sans MS;fontSize=15;startSize=26;html=1;" parent="Z9_WpyUp3ctRPymMz_iH-21" vertex="1">
          <mxGeometry y="130" width="490" height="8" as="geometry" />
        </mxCell>
        <mxCell id="Z9_WpyUp3ctRPymMz_iH-24" value="ListPage(MemoryObjectMixin,PageBase)" style="swimlane;fontStyle=1;childLayout=stackLayout;horizontal=1;startSize=26;horizontalStack=0;resizeParent=1;resizeParentMax=0;resizeLast=0;collapsible=1;marginBottom=0;shadow=0;glass=0;sketch=1;fontFamily=Comic Sans MS;fontSize=16;html=1;swimlaneLine=1;rounded=1;labelBackgroundColor=none;labelBorderColor=none;" parent="WIyWlLk6GJQsqaUBKTNV-1" vertex="1">
          <mxGeometry x="800" y="-1130" width="390" height="300" as="geometry">
            <mxRectangle x="-440" y="752" width="200" height="30" as="alternateBounds" />
          </mxGeometry>
        </mxCell>
        <mxCell id="Z9_WpyUp3ctRPymMz_iH-25" value="该类是一种模拟内存页的方法，通过将内存页模拟成列表，然后将地址作为下标访问列表来读写每个地址的值。" style="text;align=left;verticalAlign=top;spacingLeft=4;spacingRight=4;overflow=hidden;rotatable=0;points=[[0,0.5],[1,0.5]];portConstraint=eastwest;shadow=0;glass=0;sketch=1;fontFamily=Comic Sans MS;fontSize=15;html=1;strokeColor=#000000;whiteSpace=wrap;" parent="Z9_WpyUp3ctRPymMz_iH-24" vertex="1">
          <mxGeometry y="26" width="390" height="54" as="geometry" />
        </mxCell>
        <mxCell id="Z9_WpyUp3ctRPymMz_iH-26" value="+ content&lt;br&gt;表示该内存页的内容列表，每个地址处的值通过下标访问" style="text;align=left;verticalAlign=top;spacingLeft=4;spacingRight=4;overflow=hidden;rotatable=0;points=[[0,0.5],[1,0.5]];portConstraint=eastwest;shadow=0;glass=0;sketch=1;fontFamily=Comic Sans MS;fontSize=15;html=1;strokeColor=#000000;whiteSpace=wrap;" parent="Z9_WpyUp3ctRPymMz_iH-24" vertex="1">
          <mxGeometry y="80" width="390" height="50" as="geometry" />
        </mxCell>
        <mxCell id="Z9_WpyUp3ctRPymMz_iH-27" value="+ shinkhole&lt;br&gt;可能是用于返回未初始化的内存" style="text;align=left;verticalAlign=top;spacingLeft=4;spacingRight=4;overflow=hidden;rotatable=0;points=[[0,0.5],[1,0.5]];portConstraint=eastwest;shadow=0;glass=0;sketch=1;fontFamily=Comic Sans MS;fontSize=15;html=1;strokeColor=#000000;whiteSpace=wrap;" parent="Z9_WpyUp3ctRPymMz_iH-24" vertex="1">
          <mxGeometry y="130" width="390" height="50" as="geometry" />
        </mxCell>
        <mxCell id="Z9_WpyUp3ctRPymMz_iH-29" value="" style="line;strokeWidth=1;align=left;verticalAlign=middle;spacingTop=-1;spacingLeft=3;spacingRight=3;rotatable=0;labelPosition=right;points=[];portConstraint=eastwest;rounded=1;shadow=0;glass=0;labelBackgroundColor=none;labelBorderColor=none;sketch=1;fontFamily=Comic Sans MS;fontSize=15;startSize=26;html=1;" parent="Z9_WpyUp3ctRPymMz_iH-24" vertex="1">
          <mxGeometry y="180" width="390" height="8" as="geometry" />
        </mxCell>
        <mxCell id="Z9_WpyUp3ctRPymMz_iH-30" value="+ load&lt;br&gt;读self.content中的值&lt;br&gt;最后会返回成元组，然后处理地址对齐和合并类型等" style="text;align=left;verticalAlign=top;spacingLeft=4;spacingRight=4;overflow=hidden;rotatable=0;points=[[0,0.5],[1,0.5]];portConstraint=eastwest;shadow=0;glass=0;sketch=1;fontFamily=Comic Sans MS;fontSize=15;html=1;strokeColor=#000000;whiteSpace=wrap;" parent="Z9_WpyUp3ctRPymMz_iH-24" vertex="1">
          <mxGeometry y="188" width="390" height="62" as="geometry" />
        </mxCell>
        <mxCell id="Z9_WpyUp3ctRPymMz_iH-31" value="+ store&lt;br&gt;和上面load类似" style="text;align=left;verticalAlign=top;spacingLeft=4;spacingRight=4;overflow=hidden;rotatable=0;points=[[0,0.5],[1,0.5]];portConstraint=eastwest;shadow=0;glass=0;sketch=1;fontFamily=Comic Sans MS;fontSize=15;html=1;strokeColor=#000000;whiteSpace=wrap;rounded=1;" parent="Z9_WpyUp3ctRPymMz_iH-24" vertex="1">
          <mxGeometry y="250" width="390" height="50" as="geometry" />
        </mxCell>
        <mxCell id="Z9_WpyUp3ctRPymMz_iH-32" value="ListPagesMixin" style="swimlane;fontStyle=1;childLayout=stackLayout;horizontal=1;startSize=26;horizontalStack=0;resizeParent=1;resizeParentMax=0;resizeLast=0;collapsible=1;marginBottom=0;shadow=0;glass=0;sketch=1;fontFamily=Comic Sans MS;fontSize=16;html=1;swimlaneLine=1;rounded=1;labelBackgroundColor=none;labelBorderColor=none;" parent="WIyWlLk6GJQsqaUBKTNV-1" vertex="1">
          <mxGeometry x="120" y="-840" width="440" height="118" as="geometry">
            <mxRectangle x="-440" y="752" width="200" height="30" as="alternateBounds" />
          </mxGeometry>
        </mxCell>
        <mxCell id="Z9_WpyUp3ctRPymMz_iH-33" value="PageMemoryMixin派生的类。主要将PAGE_TYPE设置为了ListPage，用list来表示模拟页面。" style="text;align=left;verticalAlign=top;spacingLeft=4;spacingRight=4;overflow=hidden;rotatable=0;points=[[0,0.5],[1,0.5]];portConstraint=eastwest;shadow=0;glass=0;sketch=1;fontFamily=Comic Sans MS;fontSize=15;html=1;strokeColor=#000000;whiteSpace=wrap;" parent="Z9_WpyUp3ctRPymMz_iH-32" vertex="1">
          <mxGeometry y="26" width="440" height="54" as="geometry" />
        </mxCell>
        <mxCell id="Z9_WpyUp3ctRPymMz_iH-35" value="+ PAGE_TYPE = ListPage" style="text;align=left;verticalAlign=top;spacingLeft=4;spacingRight=4;overflow=hidden;rotatable=0;points=[[0,0.5],[1,0.5]];portConstraint=eastwest;shadow=0;glass=0;sketch=1;fontFamily=Comic Sans MS;fontSize=15;html=1;strokeColor=#000000;whiteSpace=wrap;" parent="Z9_WpyUp3ctRPymMz_iH-32" vertex="1">
          <mxGeometry y="80" width="440" height="30" as="geometry" />
        </mxCell>
        <mxCell id="Z9_WpyUp3ctRPymMz_iH-37" value="" style="line;strokeWidth=1;align=left;verticalAlign=middle;spacingTop=-1;spacingLeft=3;spacingRight=3;rotatable=0;labelPosition=right;points=[];portConstraint=eastwest;rounded=1;shadow=0;glass=0;labelBackgroundColor=none;labelBorderColor=none;sketch=1;fontFamily=Comic Sans MS;fontSize=15;startSize=26;html=1;" parent="Z9_WpyUp3ctRPymMz_iH-32" vertex="1">
          <mxGeometry y="110" width="440" height="8" as="geometry" />
        </mxCell>
        <mxCell id="Z9_WpyUp3ctRPymMz_iH-40" value="" style="endArrow=block;dashed=1;endFill=0;endSize=12;html=1;rounded=1;sketch=1;fontFamily=Comic Sans MS;entryX=0.5;entryY=0;entryDx=0;entryDy=0;" parent="WIyWlLk6GJQsqaUBKTNV-1" source="Z9_WpyUp3ctRPymMz_iH-20" target="Z9_WpyUp3ctRPymMz_iH-32" edge="1">
          <mxGeometry width="160" relative="1" as="geometry">
            <mxPoint x="688.75" y="-1360" as="sourcePoint" />
            <mxPoint x="688.75" y="-1278" as="targetPoint" />
          </mxGeometry>
        </mxCell>
        <mxCell id="Z9_WpyUp3ctRPymMz_iH-42" value="" style="endArrow=block;dashed=1;endFill=0;endSize=12;html=1;rounded=1;sketch=1;fontFamily=Comic Sans MS;entryX=0.5;entryY=0;entryDx=0;entryDy=0;exitX=0.5;exitY=1;exitDx=0;exitDy=0;" parent="WIyWlLk6GJQsqaUBKTNV-1" source="Z9_WpyUp3ctRPymMz_iH-21" target="Z9_WpyUp3ctRPymMz_iH-24" edge="1">
          <mxGeometry width="160" relative="1" as="geometry">
            <mxPoint x="994.44" y="-1220" as="sourcePoint" />
            <mxPoint x="994.44" y="-1138" as="targetPoint" />
          </mxGeometry>
        </mxCell>
        <mxCell id="Z9_WpyUp3ctRPymMz_iH-43" value="··· ···" style="swimlane;fontStyle=1;childLayout=stackLayout;horizontal=1;startSize=26;horizontalStack=0;resizeParent=1;resizeParentMax=0;resizeLast=0;collapsible=1;marginBottom=0;shadow=0;glass=0;sketch=1;fontFamily=Comic Sans MS;fontSize=16;html=1;swimlaneLine=1;rounded=1;labelBackgroundColor=none;labelBorderColor=none;" parent="WIyWlLk6GJQsqaUBKTNV-1" vertex="1">
          <mxGeometry x="-900" y="-1390" width="260" height="128" as="geometry">
            <mxRectangle x="-440" y="752" width="200" height="30" as="alternateBounds" />
          </mxGeometry>
        </mxCell>
        <mxCell id="Z9_WpyUp3ctRPymMz_iH-44" value="根据angr 的Mixin 设计模式，会派生出各种小功能的内存Mixin类，比如处理传入参数是字符串表示的寄存器的、处理传入是内存的等等...." style="text;align=left;verticalAlign=top;spacingLeft=4;spacingRight=4;overflow=hidden;rotatable=0;points=[[0,0.5],[1,0.5]];portConstraint=eastwest;shadow=0;glass=0;sketch=1;fontFamily=Comic Sans MS;fontSize=15;html=1;strokeColor=#000000;whiteSpace=wrap;" parent="Z9_WpyUp3ctRPymMz_iH-43" vertex="1">
          <mxGeometry y="26" width="260" height="94" as="geometry" />
        </mxCell>
        <mxCell id="Z9_WpyUp3ctRPymMz_iH-45" value="" style="line;strokeWidth=1;align=left;verticalAlign=middle;spacingTop=-1;spacingLeft=3;spacingRight=3;rotatable=0;labelPosition=right;points=[];portConstraint=eastwest;rounded=1;shadow=0;glass=0;labelBackgroundColor=none;labelBorderColor=none;sketch=1;fontFamily=Comic Sans MS;fontSize=15;startSize=26;html=1;" parent="Z9_WpyUp3ctRPymMz_iH-43" vertex="1">
          <mxGeometry y="120" width="260" height="8" as="geometry" />
        </mxCell>
        <mxCell id="Z9_WpyUp3ctRPymMz_iH-46" style="edgeStyle=orthogonalEdgeStyle;rounded=1;sketch=1;orthogonalLoop=1;jettySize=auto;html=1;entryX=0.25;entryY=0;entryDx=0;entryDy=0;strokeColor=#000000;dashed=1;exitX=1;exitY=0.5;exitDx=0;exitDy=0;" parent="WIyWlLk6GJQsqaUBKTNV-1" source="Z9_WpyUp3ctRPymMz_iH-35" target="Z9_WpyUp3ctRPymMz_iH-24" edge="1">
          <mxGeometry relative="1" as="geometry">
            <mxPoint x="600" y="-830" as="sourcePoint" />
            <mxPoint x="715" y="-1410" as="targetPoint" />
          </mxGeometry>
        </mxCell>
        <mxCell id="Z9_WpyUp3ctRPymMz_iH-47" value="&lt;font style=&quot;font-size: 18px&quot;&gt;指定&lt;br&gt;类型&lt;/font&gt;" style="edgeLabel;html=1;align=center;verticalAlign=middle;resizable=0;points=[];fontColor=#FF0800;fontStyle=1" parent="Z9_WpyUp3ctRPymMz_iH-46" vertex="1" connectable="0">
          <mxGeometry x="-0.2478" y="1" relative="1" as="geometry">
            <mxPoint y="-39" as="offset" />
          </mxGeometry>
        </mxCell>
        <mxCell id="Z9_WpyUp3ctRPymMz_iH-48" value="" style="endArrow=block;dashed=1;endFill=0;endSize=12;html=1;rounded=1;sketch=1;fontFamily=Comic Sans MS;entryX=0.5;entryY=0;entryDx=0;entryDy=0;" parent="WIyWlLk6GJQsqaUBKTNV-1" source="Z9_WpyUp3ctRPymMz_iH-13" target="JRtBMN249R-x29OtQVno-9" edge="1">
          <mxGeometry width="160" relative="1" as="geometry">
            <mxPoint x="-290" y="-540" as="sourcePoint" />
            <mxPoint x="-90" y="-448" as="targetPoint" />
          </mxGeometry>
        </mxCell>
        <mxCell id="Z9_WpyUp3ctRPymMz_iH-49" value="" style="endArrow=block;dashed=1;endFill=0;endSize=12;html=1;rounded=1;sketch=1;fontFamily=Comic Sans MS;entryX=0;entryY=0.08;entryDx=0;entryDy=0;exitX=0.458;exitY=0.98;exitDx=0;exitDy=0;exitPerimeter=0;edgeStyle=orthogonalEdgeStyle;entryPerimeter=0;" parent="WIyWlLk6GJQsqaUBKTNV-1" source="Z9_WpyUp3ctRPymMz_iH-45" target="JRtBMN249R-x29OtQVno-9" edge="1">
          <mxGeometry width="160" relative="1" as="geometry">
            <mxPoint x="-950" y="-580" as="sourcePoint" />
            <mxPoint x="-646.8299999999995" y="-433.0799999999999" as="targetPoint" />
          </mxGeometry>
        </mxCell>
        <mxCell id="Z9_WpyUp3ctRPymMz_iH-51" value="" style="endArrow=block;dashed=1;endFill=0;endSize=12;html=1;rounded=1;sketch=1;fontFamily=Comic Sans MS;entryX=0.5;entryY=0;entryDx=0;entryDy=0;exitX=0.512;exitY=1.043;exitDx=0;exitDy=0;exitPerimeter=0;" parent="WIyWlLk6GJQsqaUBKTNV-1" source="JRtBMN249R-x29OtQVno-49" target="JRtBMN249R-x29OtQVno-19" edge="1">
          <mxGeometry width="160" relative="1" as="geometry">
            <mxPoint x="-280" y="-1832" as="sourcePoint" />
            <mxPoint x="-280" y="-1750" as="targetPoint" />
          </mxGeometry>
        </mxCell>
        <mxCell id="Z9_WpyUp3ctRPymMz_iH-52" value="" style="endArrow=block;dashed=1;endFill=0;endSize=12;html=1;rounded=1;sketch=1;fontFamily=Comic Sans MS;entryX=0.5;entryY=0;entryDx=0;entryDy=0;exitX=0.517;exitY=1.061;exitDx=0;exitDy=0;exitPerimeter=0;" parent="WIyWlLk6GJQsqaUBKTNV-1" source="JRtBMN249R-x29OtQVno-49" target="JRtBMN249R-x29OtQVno-6" edge="1">
          <mxGeometry width="160" relative="1" as="geometry">
            <mxPoint x="-237.31999999999982" y="-1500" as="sourcePoint" />
            <mxPoint x="-382.6800000000004" y="-1353.0100000000002" as="targetPoint" />
          </mxGeometry>
        </mxCell>
        <mxCell id="Z9_WpyUp3ctRPymMz_iH-53" value="" style="endArrow=block;dashed=1;endFill=0;endSize=12;html=1;rounded=1;sketch=1;fontFamily=Comic Sans MS;entryX=1;entryY=0;entryDx=0;entryDy=0;exitX=0.5;exitY=1;exitDx=0;exitDy=0;edgeStyle=orthogonalEdgeStyle;" parent="WIyWlLk6GJQsqaUBKTNV-1" source="Z9_WpyUp3ctRPymMz_iH-32" target="JRtBMN249R-x29OtQVno-9" edge="1">
          <mxGeometry width="160" relative="1" as="geometry">
            <mxPoint x="49.999999999999545" y="-560.0000000000005" as="sourcePoint" />
            <mxPoint x="353.16999999999956" y="-413.0800000000004" as="targetPoint" />
            <Array as="points">
              <mxPoint x="340" y="-400" />
            </Array>
          </mxGeometry>
        </mxCell>
        <mxCell id="Z9_WpyUp3ctRPymMz_iH-54" value="" style="endArrow=block;dashed=1;endFill=0;endSize=12;html=1;rounded=1;sketch=1;fontFamily=Comic Sans MS;entryX=0.5;entryY=0;entryDx=0;entryDy=0;exitX=0.517;exitY=1.029;exitDx=0;exitDy=0;exitPerimeter=0;" parent="WIyWlLk6GJQsqaUBKTNV-1" source="JRtBMN249R-x29OtQVno-49" target="Z9_WpyUp3ctRPymMz_iH-43" edge="1">
          <mxGeometry width="160" relative="1" as="geometry">
            <mxPoint x="-390" y="-1480" as="sourcePoint" />
            <mxPoint x="-860" y="-1443.0100000000002" as="targetPoint" />
          </mxGeometry>
        </mxCell>
        <mxCell id="Z9_WpyUp3ctRPymMz_iH-57" value="SimConcretizationStrategyRange" style="swimlane;fontStyle=1;childLayout=stackLayout;horizontal=1;startSize=26;horizontalStack=0;resizeParent=1;resizeParentMax=0;resizeLast=0;collapsible=1;marginBottom=0;shadow=0;glass=0;sketch=1;fontFamily=Comic Sans MS;fontSize=16;html=1;swimlaneLine=1;rounded=1;labelBackgroundColor=none;labelBorderColor=none;" parent="WIyWlLk6GJQsqaUBKTNV-1" vertex="1">
          <mxGeometry x="-1200" y="-954" width="280" height="88" as="geometry">
            <mxRectangle x="-440" y="752" width="200" height="30" as="alternateBounds" />
          </mxGeometry>
        </mxCell>
        <mxCell id="Z9_WpyUp3ctRPymMz_iH-58" value="获得符号地址的范围的策略" style="text;align=left;verticalAlign=top;spacingLeft=4;spacingRight=4;overflow=hidden;rotatable=0;points=[[0,0.5],[1,0.5]];portConstraint=eastwest;shadow=0;glass=0;sketch=1;fontFamily=Comic Sans MS;fontSize=15;html=1;strokeColor=#000000;whiteSpace=wrap;" parent="Z9_WpyUp3ctRPymMz_iH-57" vertex="1">
          <mxGeometry y="26" width="280" height="54" as="geometry" />
        </mxCell>
        <mxCell id="Z9_WpyUp3ctRPymMz_iH-59" value="" style="line;strokeWidth=1;align=left;verticalAlign=middle;spacingTop=-1;spacingLeft=3;spacingRight=3;rotatable=0;labelPosition=right;points=[];portConstraint=eastwest;rounded=1;shadow=0;glass=0;labelBackgroundColor=none;labelBorderColor=none;sketch=1;fontFamily=Comic Sans MS;fontSize=15;startSize=26;html=1;" parent="Z9_WpyUp3ctRPymMz_iH-57" vertex="1">
          <mxGeometry y="80" width="280" height="8" as="geometry" />
        </mxCell>
        <mxCell id="Z9_WpyUp3ctRPymMz_iH-60" value="" style="endArrow=block;dashed=1;endFill=0;endSize=12;html=1;rounded=1;sketch=1;fontFamily=Comic Sans MS;entryX=0;entryY=0.5;entryDx=0;entryDy=0;exitX=1;exitY=0.5;exitDx=0;exitDy=0;" parent="WIyWlLk6GJQsqaUBKTNV-1" source="JRtBMN249R-x29OtQVno-35" target="JRtBMN249R-x29OtQVno-44" edge="1">
          <mxGeometry width="160" relative="1" as="geometry">
            <mxPoint x="-1255.2400000000007" y="-1270.0000000000005" as="sourcePoint" />
            <mxPoint x="-1740.0000000000005" y="-1132.0300000000002" as="targetPoint" />
          </mxGeometry>
        </mxCell>
        <mxCell id="Z9_WpyUp3ctRPymMz_iH-61" value="" style="endArrow=block;dashed=1;endFill=0;endSize=12;html=1;rounded=1;sketch=1;fontFamily=Comic Sans MS;entryX=0;entryY=0.5;entryDx=0;entryDy=0;exitX=1;exitY=0.5;exitDx=0;exitDy=0;" parent="WIyWlLk6GJQsqaUBKTNV-1" source="JRtBMN249R-x29OtQVno-35" target="Z9_WpyUp3ctRPymMz_iH-58" edge="1">
          <mxGeometry width="160" relative="1" as="geometry">
            <mxPoint x="-1340.0000000000005" y="-919" as="sourcePoint" />
            <mxPoint x="-1190.0000000000005" y="-1007" as="targetPoint" />
          </mxGeometry>
        </mxCell>
        <mxCell id="Z9_WpyUp3ctRPymMz_iH-62" value="" style="endArrow=block;dashed=1;endFill=0;endSize=12;html=1;rounded=1;sketch=1;fontFamily=Comic Sans MS;entryX=0;entryY=0.5;entryDx=0;entryDy=0;exitX=1;exitY=0.5;exitDx=0;exitDy=0;" parent="WIyWlLk6GJQsqaUBKTNV-1" source="JRtBMN249R-x29OtQVno-35" target="JRtBMN249R-x29OtQVno-40" edge="1">
          <mxGeometry width="160" relative="1" as="geometry">
            <mxPoint x="-1360.0000000000005" y="-860" as="sourcePoint" />
            <mxPoint x="-1210.0000000000005" y="-831.9999999999995" as="targetPoint" />
          </mxGeometry>
        </mxCell>
        <mxCell id="Z9_WpyUp3ctRPymMz_iH-63" value="··· ···" style="swimlane;fontStyle=1;childLayout=stackLayout;horizontal=1;startSize=26;horizontalStack=0;resizeParent=1;resizeParentMax=0;resizeLast=0;collapsible=1;marginBottom=0;shadow=0;glass=0;sketch=1;fontFamily=Comic Sans MS;fontSize=16;html=1;swimlaneLine=1;rounded=1;labelBackgroundColor=none;labelBorderColor=none;" parent="WIyWlLk6GJQsqaUBKTNV-1" vertex="1">
          <mxGeometry x="-1200" y="-687" width="280" height="88" as="geometry">
            <mxRectangle x="-440" y="752" width="200" height="30" as="alternateBounds" />
          </mxGeometry>
        </mxCell>
        <mxCell id="Z9_WpyUp3ctRPymMz_iH-64" value="其他策略可以自己实现" style="text;align=left;verticalAlign=top;spacingLeft=4;spacingRight=4;overflow=hidden;rotatable=0;points=[[0,0.5],[1,0.5]];portConstraint=eastwest;shadow=0;glass=0;sketch=1;fontFamily=Comic Sans MS;fontSize=15;html=1;strokeColor=#000000;whiteSpace=wrap;" parent="Z9_WpyUp3ctRPymMz_iH-63" vertex="1">
          <mxGeometry y="26" width="280" height="54" as="geometry" />
        </mxCell>
        <mxCell id="Z9_WpyUp3ctRPymMz_iH-65" value="" style="line;strokeWidth=1;align=left;verticalAlign=middle;spacingTop=-1;spacingLeft=3;spacingRight=3;rotatable=0;labelPosition=right;points=[];portConstraint=eastwest;rounded=1;shadow=0;glass=0;labelBackgroundColor=none;labelBorderColor=none;sketch=1;fontFamily=Comic Sans MS;fontSize=15;startSize=26;html=1;" parent="Z9_WpyUp3ctRPymMz_iH-63" vertex="1">
          <mxGeometry y="80" width="280" height="8" as="geometry" />
        </mxCell>
        <mxCell id="Z9_WpyUp3ctRPymMz_iH-66" value="" style="endArrow=block;dashed=1;endFill=0;endSize=12;html=1;rounded=1;sketch=1;fontFamily=Comic Sans MS;entryX=0;entryY=0.5;entryDx=0;entryDy=0;exitX=1;exitY=0.5;exitDx=0;exitDy=0;" parent="WIyWlLk6GJQsqaUBKTNV-1" source="JRtBMN249R-x29OtQVno-35" target="Z9_WpyUp3ctRPymMz_iH-64" edge="1">
          <mxGeometry width="160" relative="1" as="geometry">
            <mxPoint x="-1340" y="-890.9999999999995" as="sourcePoint" />
            <mxPoint x="-1190" y="-756.9999999999995" as="targetPoint" />
          </mxGeometry>
        </mxCell>
        <mxCell id="Z9_WpyUp3ctRPymMz_iH-67" value="" style="endArrow=block;dashed=1;endFill=0;endSize=12;html=1;rounded=1;sketch=1;fontFamily=Comic Sans MS;entryX=0;entryY=0.5;entryDx=0;entryDy=0;exitX=1;exitY=0.5;exitDx=0;exitDy=0;edgeStyle=orthogonalEdgeStyle;" parent="WIyWlLk6GJQsqaUBKTNV-1" source="Z9_WpyUp3ctRPymMz_iH-58" target="Z9_WpyUp3ctRPymMz_iH-0" edge="1">
          <mxGeometry width="160" relative="1" as="geometry">
            <mxPoint x="-830" y="-909.9999999999995" as="sourcePoint" />
            <mxPoint x="-680" y="-775.9999999999995" as="targetPoint" />
          </mxGeometry>
        </mxCell>
        <mxCell id="Z9_WpyUp3ctRPymMz_iH-68" value="" style="endArrow=block;dashed=1;endFill=0;endSize=12;html=1;rounded=1;sketch=1;fontFamily=Comic Sans MS;entryX=0;entryY=0.5;entryDx=0;entryDy=0;exitX=1;exitY=0.5;exitDx=0;exitDy=0;edgeStyle=orthogonalEdgeStyle;" parent="WIyWlLk6GJQsqaUBKTNV-1" source="JRtBMN249R-x29OtQVno-40" target="Z9_WpyUp3ctRPymMz_iH-0" edge="1">
          <mxGeometry width="160" relative="1" as="geometry">
            <mxPoint x="-910" y="-813.9999999999995" as="sourcePoint" />
            <mxPoint x="-525" y="-908" as="targetPoint" />
          </mxGeometry>
        </mxCell>
        <mxCell id="Z9_WpyUp3ctRPymMz_iH-69" value="" style="endArrow=block;dashed=1;endFill=0;endSize=12;html=1;rounded=1;sketch=1;fontFamily=Comic Sans MS;entryX=0;entryY=0.5;entryDx=0;entryDy=0;exitX=1;exitY=0.5;exitDx=0;exitDy=0;edgeStyle=orthogonalEdgeStyle;" parent="WIyWlLk6GJQsqaUBKTNV-1" source="JRtBMN249R-x29OtQVno-44" target="JRtBMN249R-x29OtQVno-25" edge="1">
          <mxGeometry width="160" relative="1" as="geometry">
            <mxPoint x="-910" y="-890.9999999999995" as="sourcePoint" />
            <mxPoint x="-525" y="-985" as="targetPoint" />
            <Array as="points">
              <mxPoint x="-830" y="-1017" />
              <mxPoint x="-830" y="-1065" />
            </Array>
          </mxGeometry>
        </mxCell>
        <mxCell id="Z9_WpyUp3ctRPymMz_iH-70" value="" style="endArrow=block;dashed=1;endFill=0;endSize=12;html=1;rounded=1;sketch=1;fontFamily=Comic Sans MS;entryX=0;entryY=0.5;entryDx=0;entryDy=0;exitX=1;exitY=0.25;exitDx=0;exitDy=0;edgeStyle=orthogonalEdgeStyle;" parent="WIyWlLk6GJQsqaUBKTNV-1" source="Z9_WpyUp3ctRPymMz_iH-57" target="JRtBMN249R-x29OtQVno-25" edge="1">
          <mxGeometry width="160" relative="1" as="geometry">
            <mxPoint x="-910" y="-890.9999999999995" as="sourcePoint" />
            <mxPoint x="-525" y="-985" as="targetPoint" />
            <Array as="points">
              <mxPoint x="-830" y="-932" />
              <mxPoint x="-830" y="-1065" />
            </Array>
          </mxGeometry>
        </mxCell>
        <mxCell id="Z9_WpyUp3ctRPymMz_iH-71" value="&lt;span style=&quot;font-size: 18px;&quot;&gt;默认策略&lt;/span&gt;" style="edgeLabel;html=1;align=center;verticalAlign=middle;resizable=0;points=[];fontColor=#FF0800;fontStyle=1" parent="WIyWlLk6GJQsqaUBKTNV-1" vertex="1" connectable="0">
          <mxGeometry x="790.0000000000009" y="-1110.002857142857" as="geometry">
            <mxPoint x="-1416" y="111" as="offset" />
          </mxGeometry>
        </mxCell>
        <mxCell id="Z9_WpyUp3ctRPymMz_iH-72" value="&lt;span style=&quot;font-size: 18px;&quot;&gt;默认策略&lt;/span&gt;" style="edgeLabel;html=1;align=center;verticalAlign=middle;resizable=0;points=[];fontColor=#FF0800;fontStyle=1" parent="WIyWlLk6GJQsqaUBKTNV-1" vertex="1" connectable="0">
          <mxGeometry x="790.0000000000009" y="-1180.002857142857" as="geometry">
            <mxPoint x="-1416" y="111" as="offset" />
          </mxGeometry>
        </mxCell>
        <mxCell id="Z9_WpyUp3ctRPymMz_iH-73" value="&lt;h3 style=&quot;font-size: 15px;&quot;&gt;angr 对于符号化内存地址读写的策略实现&lt;/h3&gt;在内存插件的Mixin类中的AddressConcretizationMixin类负责处理传入地址是符号数据的情况。处理方式是调用通过派生SimConcretizationStrategy类而成的符号地址具现化策略中的concretize方法。来获得一个或多个满足符号约束的地址值来进行后续操作。&lt;br&gt;&lt;br&gt;用户可以通过派生SimConcretizationStrategy类来实现自己的符号地址具现化策略。" style="rounded=0;whiteSpace=wrap;html=1;fillColor=#f8cecc;sketch=1;align=left;fontSize=15;dashed=1;strokeWidth=2;perimeterSpacing=0;verticalAlign=middle;spacingLeft=7;spacingBottom=7;spacingRight=7;strokeColor=#b85450;fontFamily=Comic Sans MS;" parent="WIyWlLk6GJQsqaUBKTNV-1" vertex="1">
          <mxGeometry x="-1610" y="-1300" width="550" height="190" as="geometry" />
        </mxCell>
        <mxCell id="Z9_WpyUp3ctRPymMz_iH-74" value="" style="endArrow=block;dashed=1;endFill=0;endSize=12;html=1;rounded=1;sketch=1;fontFamily=Comic Sans MS;entryX=1;entryY=0.5;entryDx=0;entryDy=0;exitX=0.5;exitY=1;exitDx=0;exitDy=0;" parent="WIyWlLk6GJQsqaUBKTNV-1" source="JRtBMN249R-x29OtQVno-0" target="JRtBMN249R-x29OtQVno-16" edge="1">
          <mxGeometry width="160" relative="1" as="geometry">
            <mxPoint x="-270" y="-1820" as="sourcePoint" />
            <mxPoint x="-280" y="-1750" as="targetPoint" />
          </mxGeometry>
        </mxCell>
        <mxCell id="-6HKtMP87Wfs7apmkZVI-40" value="&lt;font style=&quot;font-size: 23px&quot;&gt;开局就会把插件添加好&lt;/font&gt;" style="text;html=1;strokeColor=none;fillColor=none;align=center;verticalAlign=middle;whiteSpace=wrap;rounded=0;sketch=1;fontColor=#FF0800;" parent="WIyWlLk6GJQsqaUBKTNV-1" vertex="1">
          <mxGeometry x="140" y="-358" width="130" height="20" as="geometry" />
        </mxCell>
        <mxCell id="Z9_WpyUp3ctRPymMz_iH-77" value="" style="shape=flexArrow;endArrow=none;html=1;strokeColor=#000000;fontColor=#FF0800;sketch=1;" parent="WIyWlLk6GJQsqaUBKTNV-1" target="-6HKtMP87Wfs7apmkZVI-40" edge="1">
          <mxGeometry width="50" height="50" relative="1" as="geometry">
            <mxPoint x="50" y="-342" as="sourcePoint" />
            <mxPoint x="375" y="-342" as="targetPoint" />
          </mxGeometry>
        </mxCell>
        <mxCell id="Z9_WpyUp3ctRPymMz_iH-83" value="&lt;font color=&quot;#ff3333&quot; style=&quot;font-size: 18px;&quot;&gt;call&lt;/font&gt;" style="edgeLabel;html=1;align=center;verticalAlign=middle;resizable=0;points=[];fontSize=15;fontFamily=Comic Sans MS;fontStyle=1" parent="WIyWlLk6GJQsqaUBKTNV-1" vertex="1" connectable="0">
          <mxGeometry x="-760.0020384044878" y="800.0009750643959" as="geometry">
            <mxPoint x="-57" y="95" as="offset" />
          </mxGeometry>
        </mxCell>
        <mxCell id="Z9_WpyUp3ctRPymMz_iH-85" value="&lt;font color=&quot;#ff3333&quot; style=&quot;font-size: 18px;&quot;&gt;call&lt;/font&gt;" style="edgeLabel;html=1;align=center;verticalAlign=middle;resizable=0;points=[];fontSize=15;fontFamily=Comic Sans MS;fontStyle=1" parent="WIyWlLk6GJQsqaUBKTNV-1" vertex="1" connectable="0">
          <mxGeometry x="-19.997774254857433" y="593.9979603894168" as="geometry">
            <mxPoint x="3" y="-3" as="offset" />
          </mxGeometry>
        </mxCell>
        <mxCell id="Z9_WpyUp3ctRPymMz_iH-86" value="&lt;h3 style=&quot;font-size: 15px;&quot;&gt;angr 中的State 与Plugin&lt;/h3&gt;&lt;h3 style=&quot;font-size: 15px;&quot;&gt;&lt;span style=&quot;font-weight: 400;&quot;&gt;angr 中的插件体系主要涉及三个类：&lt;/span&gt;&lt;/h3&gt;&lt;div style=&quot;font-size: 15px;&quot;&gt;&lt;span style=&quot;white-space: pre;&quot;&gt; &lt;/span&gt;PluginHub：插件管理器，管理一个插件池和一个激活插件列表&lt;br&gt;&lt;/div&gt;&lt;div style=&quot;font-size: 15px;&quot;&gt;&lt;span style=&quot;white-space: pre;&quot;&gt; &lt;/span&gt;PluginPreset：插件池类，存放可选激活的插件类(是类不是对象)&lt;br&gt;&lt;/div&gt;&lt;div style=&quot;font-size: 15px;&quot;&gt;&lt;span style=&quot;white-space: pre;&quot;&gt; &lt;/span&gt;SimStatePlugin：基本插件类，通过派生该类实现不同功能的插件&lt;br&gt;&lt;/div&gt;&lt;h3 style=&quot;font-size: 15px;&quot;&gt;&lt;span style=&quot;background-color: initial; font-weight: normal;&quot;&gt;如上方所示，从SimStatePlugin类派生而成的就是可以作为SimState的插件，插件可以实现不同的功能，包括内存、寄存器、求解器等...&lt;/span&gt;&lt;br&gt;&lt;/h3&gt;&lt;div style=&quot;font-size: 15px;&quot;&gt;SimState 类派生自PluginHub类，主要用于表示程序任意时刻的状态，包括寄存器、内存等，而这些状态都是通过插件实现的，所以SimState本身也是一个插件管理器。它会在被初始化的时候根据不同场景选择同一个功能的对应场景的插件激活。&lt;/div&gt;&lt;div style=&quot;font-size: 15px;&quot;&gt;&lt;br&gt;&lt;/div&gt;&lt;div style=&quot;font-size: 15px;&quot;&gt;整体思路是：&lt;/div&gt;&lt;div style=&quot;font-size: 15px;&quot;&gt;&lt;br&gt;&lt;/div&gt;&lt;div style=&quot;font-size: 15px;&quot;&gt;&lt;span style=&quot;white-space: pre;&quot;&gt; &lt;/span&gt;1. 通过管理一个插件池_presets(PluginPreset) 允许所有插件将自己注册进入插件池，可以同时存在多个插件池，默认使用名为&quot;default&quot;的插件池&lt;/div&gt;&lt;div style=&quot;font-size: 15px;&quot;&gt;&lt;span style=&quot;white-space: pre;&quot;&gt; &lt;/span&gt;2. 提供类方法register_default 来向默认插件池中添加插件类&lt;br&gt;&lt;/div&gt;&lt;div style=&quot;font-size: 15px;&quot;&gt;&lt;span style=&quot;white-space: pre;&quot;&gt; &lt;/span&gt;3.&amp;nbsp;&lt;span style=&quot;background-color: initial;&quot;&gt;在angr初始化阶段，各个插件都会通过类方法register_default 将自己加入插件池&lt;/span&gt;&lt;/div&gt;&lt;div style=&quot;font-size: 15px;&quot;&gt;&lt;span style=&quot;background-color: initial;&quot;&gt;&lt;span style=&quot;white-space: pre;&quot;&gt; &lt;/span&gt;4. 使用时先指定使用的插件池名称，然后从插件池中取出对应名称的插件&lt;br&gt;&lt;/span&gt;&lt;/div&gt;&lt;div style=&quot;font-size: 15px;&quot;&gt;&lt;span style=&quot;background-color: initial;&quot;&gt;&lt;span style=&quot;white-space: pre;&quot;&gt; &lt;/span&gt;5. 取出的是插件类，将类初始化为对象&lt;br&gt;&lt;/span&gt;&lt;/div&gt;&lt;div style=&quot;font-size: 15px;&quot;&gt;&lt;span style=&quot;background-color: initial;&quot;&gt;&lt;span style=&quot;white-space: pre;&quot;&gt; &lt;/span&gt;6. 将初始化好的插件实例激活成为插件&lt;br&gt;&lt;/span&gt;&lt;/div&gt;" style="rounded=0;whiteSpace=wrap;html=1;strokeWidth=2;fillWeight=4;hachureGap=8;hachureAngle=45;fillColor=#e1d5e7;sketch=1;dashed=1;labelBackgroundColor=none;fontFamily=Comic Sans MS;fontSize=18;strokeColor=#9673a6;align=left;spacingLeft=7;spacingBottom=1;spacingRight=7;" parent="WIyWlLk6GJQsqaUBKTNV-1" vertex="1">
          <mxGeometry x="987" y="50" width="613" height="460" as="geometry" />
        </mxCell>
        <mxCell id="Z9_WpyUp3ctRPymMz_iH-89" value="" style="shape=flexArrow;endArrow=classic;html=1;rounded=0;fontFamily=Comic Sans MS;fontSize=18;fontColor=#000000;strokeWidth=3;sketch=1;fillColor=#FF3333;strokeColor=#FF3333;" parent="WIyWlLk6GJQsqaUBKTNV-1" edge="1">
          <mxGeometry width="50" height="50" relative="1" as="geometry">
            <mxPoint x="930" y="650" as="sourcePoint" />
            <mxPoint x="850" y="640" as="targetPoint" />
          </mxGeometry>
        </mxCell>
        <mxCell id="Z9_WpyUp3ctRPymMz_iH-91" value="&lt;h3 style=&quot;color: rgb(0, 0, 0); font-family: Helvetica; text-align: left; font-size: 15px;&quot;&gt;代办：&lt;/h3&gt;&lt;h3 style=&quot;color: rgb(0, 0, 0); font-family: Helvetica; text-align: left; font-size: 15px;&quot;&gt;solver&lt;/h3&gt;&lt;div&gt;符号执行&lt;/div&gt;&lt;div&gt;hook 断点&lt;/div&gt;&lt;div&gt;探索technic&lt;/div&gt;" style="rounded=0;whiteSpace=wrap;html=1;strokeWidth=2;fillWeight=4;hachureGap=8;hachureAngle=45;fillColor=#e1d5e7;sketch=1;dashed=1;labelBackgroundColor=none;fontFamily=Comic Sans MS;fontSize=18;strokeColor=#9673a6;" parent="WIyWlLk6GJQsqaUBKTNV-1" vertex="1">
          <mxGeometry x="1028.5" y="700" width="530" height="194" as="geometry" />
        </mxCell>
        <mxCell id="OSWh80jPnmQAN3sRVBe3-3" style="edgeStyle=orthogonalEdgeStyle;rounded=1;orthogonalLoop=1;jettySize=auto;html=1;entryX=1;entryY=0.5;entryDx=0;entryDy=0;fontSize=15;sketch=1;shadow=0;dashed=1;" parent="WIyWlLk6GJQsqaUBKTNV-1" source="-6HKtMP87Wfs7apmkZVI-11" target="-6HKtMP87Wfs7apmkZVI-8" edge="1">
          <mxGeometry relative="1" as="geometry">
            <Array as="points">
              <mxPoint x="450" y="-271" />
              <mxPoint x="450" y="-56" />
            </Array>
          </mxGeometry>
        </mxCell>
        <mxCell id="OSWh80jPnmQAN3sRVBe3-4" value="&lt;font color=&quot;#ff3333&quot; style=&quot;font-size: 18px;&quot;&gt;call&lt;/font&gt;" style="edgeLabel;html=1;align=center;verticalAlign=middle;resizable=0;points=[];fontSize=15;fontFamily=Comic Sans MS;fontStyle=1" parent="WIyWlLk6GJQsqaUBKTNV-1" vertex="1" connectable="0">
          <mxGeometry x="450.0022257451426" y="-180.0020396105832" as="geometry">
            <mxPoint x="3" y="-3" as="offset" />
          </mxGeometry>
        </mxCell>
        <mxCell id="OSWh80jPnmQAN3sRVBe3-5" value="" style="shape=curlyBracket;whiteSpace=wrap;html=1;rounded=1;fontSize=15;sketch=1;" parent="WIyWlLk6GJQsqaUBKTNV-1" vertex="1">
          <mxGeometry x="470" y="-520" width="30" height="150" as="geometry" />
        </mxCell>
        <mxCell id="OSWh80jPnmQAN3sRVBe3-7" style="edgeStyle=orthogonalEdgeStyle;rounded=1;sketch=1;orthogonalLoop=1;jettySize=auto;html=1;entryX=1;entryY=0.5;entryDx=0;entryDy=0;shadow=0;fontSize=15;" parent="WIyWlLk6GJQsqaUBKTNV-1" source="3sq2q5aOKvz9u4SkfBbp-10" target="G1SJ9XWwTOi_GsLU9m5k-25" edge="1">
          <mxGeometry relative="1" as="geometry" />
        </mxCell>
        <mxCell id="OSWh80jPnmQAN3sRVBe3-8" value="&lt;font color=&quot;#ff3333&quot; style=&quot;font-size: 18px;&quot;&gt;指定&lt;br&gt;类型&lt;/font&gt;" style="edgeLabel;html=1;align=center;verticalAlign=middle;resizable=0;points=[];fontSize=15;fontFamily=Comic Sans MS;fontStyle=1" parent="WIyWlLk6GJQsqaUBKTNV-1" vertex="1" connectable="0">
          <mxGeometry x="410.0022257451426" y="-280.0020396105832" as="geometry">
            <mxPoint x="3" y="-3" as="offset" />
          </mxGeometry>
        </mxCell>
        <mxCell id="OSWh80jPnmQAN3sRVBe3-9" value="&lt;font color=&quot;#ff3333&quot; style=&quot;font-size: 18px;&quot;&gt;指定&lt;br&gt;类型&lt;/font&gt;" style="edgeLabel;html=1;align=center;verticalAlign=middle;resizable=0;points=[];fontSize=15;fontFamily=Comic Sans MS;fontStyle=1" parent="WIyWlLk6GJQsqaUBKTNV-1" vertex="1" connectable="0">
          <mxGeometry x="460.0022257451426" y="559.9979603894168" as="geometry">
            <mxPoint x="3" y="-3" as="offset" />
          </mxGeometry>
        </mxCell>
        <mxCell id="OSWh80jPnmQAN3sRVBe3-10" value="&lt;font color=&quot;#ff3333&quot; style=&quot;font-size: 18px;&quot;&gt;指定&lt;br&gt;类型&lt;/font&gt;" style="edgeLabel;html=1;align=center;verticalAlign=middle;resizable=0;points=[];fontSize=15;fontFamily=Comic Sans MS;fontStyle=1" parent="WIyWlLk6GJQsqaUBKTNV-1" vertex="1" connectable="0">
          <mxGeometry x="460.0022257451426" y="809.9979603894168" as="geometry">
            <mxPoint x="3" y="-3" as="offset" />
          </mxGeometry>
        </mxCell>
      </root>
    </mxGraphModel>
  </diagram>
</mxfile>
